M48
;Layer_Color=9474304
;FILE_FORMAT=4:4
METRIC,LZ
;TYPE=PLATED
T1F00S00C0.8000
T2F00S00C0.9000
T3F00S00C1.6000
T4F00S00C3.0000
%
T01
X0084582Y0062611
Y0072771
X011684Y0075311
Y0065151
Y0080391
Y0090551
T02
X0087884Y0062611
Y0065151
Y0067691
Y0070231
Y0072771
Y0075311
Y0077851
X0113284
Y0075311
Y0072771
Y0070231
Y0067691
Y0065151
Y0062611
Y0080391
Y0082931
Y0085471
Y0088011
Y0090551
Y0093091
Y0095631
Y0098171
Y0100711
Y0103251
Y0105791
Y0108331
X0087884
Y0105791
Y0103251
Y0100711
Y0098171
Y0095631
Y0093091
Y0090551
Y0088011
Y0085471
Y0082931
Y0080391
X0119126Y0098171
Y0100711
Y0103251
T03
X013335Y0052451
Y0057531
Y0062611
Y0067691
X0133559Y0075191
X0067884
Y0067691
Y0062611
Y0057531
Y0052451
Y0080271
X0133559
Y0087771
Y0092851
Y0100838
Y0105918
Y0110998
T04
X013335Y0045451
X0067884
Y0117998
X0133559
M30
