G04*
G04 #@! TF.GenerationSoftware,Altium Limited,Altium Designer,19.0.5 (141)*
G04*
G04 Layer_Physical_Order=2*
G04 Layer_Color=16711680*
%FSLAX44Y44*%
%MOMM*%
G71*
G01*
G75*
%ADD10C,1.0000*%
%ADD11C,1.9000*%
%ADD12R,2.6000X2.6000*%
%ADD13C,2.6000*%
%ADD14R,1.9000X1.9000*%
%ADD15C,1.7000*%
G36*
X810224Y4354D02*
X4354D01*
Y781268D01*
X810224D01*
Y4354D01*
D02*
G37*
%LPC*%
G36*
X736658Y773633D02*
X733129Y773286D01*
X729736Y772256D01*
X726609Y770585D01*
X723868Y768335D01*
X721619Y765595D01*
X719948Y762468D01*
X718919Y759075D01*
X718571Y755546D01*
X718919Y752017D01*
X719948Y748624D01*
X721619Y745497D01*
X723868Y742757D01*
X726609Y740507D01*
X729736Y738836D01*
X733129Y737806D01*
X736658Y737459D01*
X740187Y737806D01*
X743580Y738836D01*
X746707Y740507D01*
X749447Y742757D01*
X751697Y745497D01*
X753368Y748624D01*
X754398Y752017D01*
X754745Y755546D01*
X754398Y759075D01*
X753368Y762468D01*
X751697Y765595D01*
X749447Y768335D01*
X746707Y770585D01*
X743580Y772256D01*
X740187Y773286D01*
X736658Y773633D01*
D02*
G37*
G36*
X79908D02*
X76379Y773286D01*
X72986Y772256D01*
X69859Y770585D01*
X67119Y768335D01*
X64869Y765595D01*
X63198Y762468D01*
X62168Y759075D01*
X61821Y755546D01*
X62168Y752017D01*
X63198Y748624D01*
X64869Y745497D01*
X67119Y742757D01*
X69859Y740507D01*
X72986Y738836D01*
X76379Y737806D01*
X79908Y737459D01*
X83437Y737806D01*
X86830Y738836D01*
X89957Y740507D01*
X92697Y742757D01*
X94947Y745497D01*
X96618Y748624D01*
X97647Y752017D01*
X97995Y755546D01*
X97647Y759075D01*
X96618Y762468D01*
X94947Y765595D01*
X92697Y768335D01*
X89957Y770585D01*
X86830Y772256D01*
X83437Y773286D01*
X79908Y773633D01*
D02*
G37*
G36*
X533908Y671484D02*
X530645Y671054D01*
X527604Y669795D01*
X524993Y667791D01*
X522989Y665180D01*
X521730Y662139D01*
X521300Y658876D01*
X521730Y655613D01*
X522989Y652572D01*
X524993Y649961D01*
X527604Y647957D01*
X530331Y646828D01*
X530331Y646826D01*
Y645526D01*
X530331Y645524D01*
X527604Y644395D01*
X524993Y642391D01*
X522989Y639780D01*
X521730Y636739D01*
X521300Y633476D01*
X521730Y630213D01*
X522989Y627172D01*
X524993Y624561D01*
X527604Y622557D01*
X530331Y621428D01*
X530331Y621426D01*
Y620126D01*
X530331Y620124D01*
X527604Y618995D01*
X524993Y616991D01*
X522989Y614380D01*
X521730Y611339D01*
X521300Y608076D01*
X521730Y604813D01*
X522989Y601772D01*
X524993Y599161D01*
X527604Y597157D01*
X530331Y596028D01*
X530331Y596026D01*
Y594726D01*
X530331Y594724D01*
X527604Y593595D01*
X524993Y591591D01*
X522989Y588980D01*
X521730Y585939D01*
X521300Y582676D01*
X521730Y579413D01*
X522989Y576372D01*
X524993Y573761D01*
X527604Y571757D01*
X530331Y570628D01*
X530331Y570626D01*
Y569326D01*
X530331Y569324D01*
X527604Y568195D01*
X524993Y566191D01*
X522989Y563580D01*
X521730Y560539D01*
X521300Y557276D01*
X521730Y554013D01*
X522989Y550972D01*
X524993Y548361D01*
X527604Y546357D01*
X530645Y545098D01*
X533908Y544668D01*
X537171Y545098D01*
X540212Y546357D01*
X542823Y548361D01*
X544827Y550972D01*
X546086Y554013D01*
X546516Y557276D01*
X546086Y560539D01*
X544827Y563580D01*
X542823Y566191D01*
X540212Y568195D01*
X537485Y569324D01*
X537485Y569326D01*
Y570626D01*
X537485Y570628D01*
X540212Y571757D01*
X542823Y573761D01*
X543472Y574607D01*
X582764D01*
X583413Y573761D01*
X586024Y571757D01*
X589065Y570498D01*
X592328Y570068D01*
X595591Y570498D01*
X598632Y571757D01*
X601243Y573761D01*
X603247Y576372D01*
X604506Y579413D01*
X604936Y582676D01*
X604506Y585939D01*
X603247Y588980D01*
X601243Y591591D01*
X598632Y593595D01*
X596915Y594306D01*
X597167Y595576D01*
X604828D01*
Y620576D01*
X579828D01*
Y616145D01*
X543472D01*
X542823Y616991D01*
X540212Y618995D01*
X537485Y620124D01*
X537485Y620126D01*
Y621426D01*
X537485Y621428D01*
X540212Y622557D01*
X542823Y624561D01*
X544827Y627172D01*
X546086Y630213D01*
X546516Y633476D01*
X546086Y636739D01*
X544827Y639780D01*
X542823Y642391D01*
X540212Y644395D01*
X537485Y645524D01*
X537485Y645526D01*
Y646826D01*
X537485Y646828D01*
X540212Y647957D01*
X542823Y649961D01*
X543472Y650807D01*
X729812D01*
X729887Y650667D01*
X729383Y649000D01*
X727726Y648114D01*
X725290Y646115D01*
X723290Y643678D01*
X722829Y642815D01*
X696468D01*
X694380Y642540D01*
X692433Y641734D01*
X690762Y640452D01*
X664092Y613782D01*
X662810Y612110D01*
X662004Y610164D01*
X661729Y608076D01*
Y560618D01*
X615656Y514545D01*
X543472D01*
X542823Y515391D01*
X540212Y517395D01*
X537171Y518654D01*
X533908Y519084D01*
X530645Y518654D01*
X527604Y517395D01*
X524993Y515391D01*
X522989Y512780D01*
X521730Y509739D01*
X521300Y506476D01*
X521730Y503213D01*
X522989Y500172D01*
X524993Y497561D01*
X527604Y495557D01*
X530331Y494428D01*
X530331Y494426D01*
Y493126D01*
X530331Y493124D01*
X527604Y491995D01*
X524993Y489991D01*
X522989Y487380D01*
X521730Y484339D01*
X521300Y481076D01*
X521730Y477813D01*
X522989Y474772D01*
X524993Y472161D01*
X527604Y470157D01*
X530331Y469028D01*
X530331Y469026D01*
Y467726D01*
X530331Y467724D01*
X527604Y466595D01*
X524993Y464591D01*
X522989Y461980D01*
X521730Y458939D01*
X521300Y455676D01*
X521730Y452413D01*
X522989Y449372D01*
X524993Y446761D01*
X527604Y444757D01*
X530331Y443628D01*
X530331Y443626D01*
Y442326D01*
X530331Y442324D01*
X527604Y441195D01*
X524993Y439191D01*
X522989Y436580D01*
X521730Y433539D01*
X521300Y430276D01*
X521730Y427013D01*
X522989Y423972D01*
X524993Y421361D01*
X527604Y419357D01*
X530331Y418228D01*
X530331Y418226D01*
Y416926D01*
X530331Y416924D01*
X527604Y415795D01*
X524993Y413791D01*
X522989Y411180D01*
X521730Y408139D01*
X521300Y404876D01*
X521730Y401613D01*
X522989Y398572D01*
X524993Y395961D01*
X527604Y393957D01*
X530331Y392828D01*
X530331Y392826D01*
Y391526D01*
X530331Y391524D01*
X527604Y390395D01*
X524993Y388391D01*
X522989Y385780D01*
X521730Y382739D01*
X521300Y379476D01*
X521730Y376213D01*
X522989Y373172D01*
X524993Y370561D01*
X527604Y368557D01*
X530331Y367428D01*
X530331Y367426D01*
Y366126D01*
X530331Y366124D01*
X527604Y364995D01*
X524993Y362991D01*
X522989Y360380D01*
X521730Y357339D01*
X521300Y354076D01*
X521730Y350813D01*
X522989Y347772D01*
X524993Y345161D01*
X527604Y343157D01*
X530331Y342028D01*
X530331Y342026D01*
Y340726D01*
X530331Y340724D01*
X527604Y339595D01*
X524993Y337591D01*
X522989Y334980D01*
X521730Y331939D01*
X521300Y328676D01*
X521730Y325413D01*
X522989Y322372D01*
X524993Y319761D01*
X527604Y317757D01*
X530331Y316628D01*
X530331Y316626D01*
Y315326D01*
X530331Y315324D01*
X527604Y314195D01*
X524993Y312191D01*
X522989Y309580D01*
X521730Y306539D01*
X521300Y303276D01*
X521730Y300013D01*
X522989Y296972D01*
X524993Y294361D01*
X527604Y292357D01*
X530331Y291228D01*
X530331Y291226D01*
Y289926D01*
X530331Y289924D01*
X527604Y288795D01*
X524993Y286791D01*
X522989Y284180D01*
X521730Y281139D01*
X521300Y277876D01*
X521730Y274613D01*
X522989Y271572D01*
X524993Y268961D01*
X527604Y266957D01*
X530331Y265828D01*
X530331Y265826D01*
Y264526D01*
X530331Y264524D01*
X527604Y263395D01*
X524993Y261391D01*
X522989Y258780D01*
X521730Y255739D01*
X521300Y252476D01*
X521730Y249213D01*
X522989Y246172D01*
X524993Y243561D01*
X527604Y241557D01*
X530331Y240428D01*
X530331Y240426D01*
Y239126D01*
X530331Y239124D01*
X527604Y237995D01*
X524993Y235991D01*
X522989Y233380D01*
X521730Y230339D01*
X521300Y227076D01*
X521730Y223813D01*
X522989Y220772D01*
X524993Y218161D01*
X527604Y216157D01*
X530331Y215028D01*
X530331Y215026D01*
Y213726D01*
X530331Y213724D01*
X527604Y212595D01*
X524993Y210591D01*
X522989Y207980D01*
X521730Y204939D01*
X521300Y201676D01*
X521730Y198413D01*
X522989Y195372D01*
X524993Y192761D01*
X527604Y190757D01*
X530645Y189498D01*
X533908Y189068D01*
X537171Y189498D01*
X540212Y190757D01*
X542823Y192761D01*
X543472Y193607D01*
X554678D01*
X555164Y192434D01*
X547076Y184345D01*
X259120D01*
X254957Y188508D01*
Y193372D01*
X255090Y193474D01*
X256933Y195876D01*
X258092Y198674D01*
X258487Y201676D01*
X258092Y204678D01*
X256933Y207476D01*
X255090Y209878D01*
X252688Y211721D01*
X249890Y212880D01*
X246888Y213275D01*
X243886Y212880D01*
X241088Y211721D01*
X238686Y209878D01*
X236843Y207476D01*
X235684Y204678D01*
X235289Y201676D01*
X235684Y198674D01*
X236843Y195876D01*
X238686Y193474D01*
X238819Y193372D01*
Y185166D01*
X239094Y183078D01*
X239900Y181131D01*
X241182Y179460D01*
X250072Y170570D01*
X251744Y169288D01*
X253690Y168482D01*
X255778Y168207D01*
X550418D01*
X552506Y168482D01*
X554453Y169288D01*
X556124Y170570D01*
X560226Y174672D01*
X561399Y174186D01*
Y126746D01*
X561674Y124658D01*
X562480Y122711D01*
X563762Y121040D01*
X615832Y68970D01*
X617504Y67688D01*
X619450Y66882D01*
X621538Y66607D01*
X759968D01*
X762056Y66882D01*
X764003Y67688D01*
X765674Y68970D01*
X775834Y79130D01*
X777116Y80801D01*
X777922Y82748D01*
X778197Y84836D01*
Y210566D01*
X777922Y212654D01*
X777116Y214601D01*
X775834Y216272D01*
X759324Y232782D01*
X757653Y234064D01*
X755706Y234870D01*
X753618Y235145D01*
X718860D01*
X707077Y246928D01*
Y275804D01*
X712510Y281237D01*
X747268D01*
X749356Y281512D01*
X751302Y282318D01*
X752974Y283600D01*
X768214Y298840D01*
X769496Y300511D01*
X770302Y302458D01*
X770577Y304546D01*
Y342646D01*
X770302Y344734D01*
X769496Y346680D01*
X768214Y348352D01*
X759324Y357242D01*
X757653Y358524D01*
X755706Y359330D01*
X753618Y359605D01*
X598210D01*
X580750Y377065D01*
X581067Y379476D01*
X580672Y382478D01*
X579513Y385276D01*
X577670Y387678D01*
X575268Y389521D01*
X572470Y390680D01*
X569468Y391075D01*
X566466Y390680D01*
X563668Y389521D01*
X561266Y387678D01*
X559423Y385276D01*
X558264Y382478D01*
X557869Y379476D01*
X558264Y376474D01*
X559423Y373676D01*
X561266Y371274D01*
X563668Y369431D01*
X566466Y368272D01*
X566759Y368233D01*
X589162Y345830D01*
X590834Y344548D01*
X592780Y343742D01*
X594868Y343467D01*
X730042D01*
X730104Y343315D01*
X730257Y342197D01*
X727726Y340844D01*
X725290Y338844D01*
X723567Y336745D01*
X577772D01*
X577670Y336878D01*
X575268Y338721D01*
X572470Y339880D01*
X569468Y340275D01*
X566466Y339880D01*
X563668Y338721D01*
X561266Y336878D01*
X561164Y336745D01*
X543472D01*
X542823Y337591D01*
X540212Y339595D01*
X537485Y340724D01*
X537485Y340726D01*
Y342026D01*
X537485Y342028D01*
X540212Y343157D01*
X542823Y345161D01*
X544827Y347772D01*
X546086Y350813D01*
X546516Y354076D01*
X546086Y357339D01*
X544827Y360380D01*
X542823Y362991D01*
X540212Y364995D01*
X537485Y366124D01*
X537485Y366126D01*
Y367426D01*
X537485Y367428D01*
X540212Y368557D01*
X542823Y370561D01*
X544827Y373172D01*
X546086Y376213D01*
X546516Y379476D01*
X546086Y382739D01*
X544827Y385780D01*
X542823Y388391D01*
X540212Y390395D01*
X537485Y391524D01*
X537485Y391526D01*
Y392826D01*
X537485Y392828D01*
X540212Y393957D01*
X542823Y395961D01*
X544827Y398572D01*
X546086Y401613D01*
X546516Y404876D01*
X546086Y408139D01*
X544827Y411180D01*
X542823Y413791D01*
X540212Y415795D01*
X537485Y416924D01*
X537485Y416926D01*
Y418226D01*
X537485Y418228D01*
X540212Y419357D01*
X542823Y421361D01*
X544827Y423972D01*
X546086Y427013D01*
X546516Y430276D01*
X546086Y433539D01*
X544827Y436580D01*
X542823Y439191D01*
X540212Y441195D01*
X537485Y442324D01*
X537485Y442326D01*
Y443626D01*
X537485Y443628D01*
X540212Y444757D01*
X542823Y446761D01*
X544827Y449372D01*
X546086Y452413D01*
X546516Y455676D01*
X546086Y458939D01*
X544827Y461980D01*
X542823Y464591D01*
X540212Y466595D01*
X537485Y467724D01*
X537485Y467726D01*
Y469026D01*
X537485Y469028D01*
X540212Y470157D01*
X542823Y472161D01*
X543472Y473007D01*
X561164D01*
X561266Y472874D01*
X563668Y471031D01*
X566466Y469872D01*
X569468Y469477D01*
X572470Y469872D01*
X575268Y471031D01*
X577670Y472874D01*
X577772Y473007D01*
X615656D01*
X641092Y447570D01*
X642764Y446288D01*
X644710Y445482D01*
X646798Y445207D01*
X722829D01*
X723290Y444344D01*
X725290Y441908D01*
X727726Y439908D01*
X730505Y438422D01*
X733521Y437508D01*
X736658Y437199D01*
X739794Y437508D01*
X742811Y438422D01*
X745590Y439908D01*
X748026Y441908D01*
X750026Y444344D01*
X751512Y447123D01*
X752427Y450140D01*
X752735Y453276D01*
X752427Y456413D01*
X751512Y459429D01*
X750026Y462208D01*
X748026Y464645D01*
X745590Y466644D01*
X742811Y468130D01*
X739794Y469044D01*
X736658Y469353D01*
X733521Y469044D01*
X730505Y468130D01*
X727726Y466644D01*
X725290Y464645D01*
X723290Y462208D01*
X722829Y461345D01*
X650140D01*
X624704Y486782D01*
X623032Y488064D01*
X621086Y488870D01*
X618998Y489145D01*
X577772D01*
X577670Y489278D01*
X575268Y491121D01*
X572470Y492280D01*
X569468Y492675D01*
X566466Y492280D01*
X563668Y491121D01*
X561266Y489278D01*
X561164Y489145D01*
X543472D01*
X542823Y489991D01*
X540212Y491995D01*
X537485Y493124D01*
X537485Y493126D01*
Y494426D01*
X537485Y494428D01*
X540212Y495557D01*
X542823Y497561D01*
X543472Y498407D01*
X618998D01*
X621086Y498682D01*
X623032Y499488D01*
X624704Y500770D01*
X675504Y551570D01*
X676786Y553242D01*
X677592Y555188D01*
X677867Y557276D01*
Y604734D01*
X699810Y626677D01*
X722829D01*
X723290Y625814D01*
X725290Y623377D01*
X727726Y621378D01*
X730505Y619892D01*
X733521Y618978D01*
X736658Y618669D01*
X739794Y618978D01*
X742811Y619892D01*
X745590Y621378D01*
X748026Y623377D01*
X750026Y625814D01*
X751512Y628593D01*
X752427Y631609D01*
X752735Y634746D01*
X752427Y637882D01*
X751512Y640899D01*
X750026Y643678D01*
X748026Y646115D01*
X745590Y648114D01*
X743933Y649000D01*
X743429Y650667D01*
X743504Y650807D01*
X749006D01*
X760789Y639024D01*
Y593638D01*
X759166Y592015D01*
X750487D01*
X750026Y592878D01*
X748026Y595314D01*
X745590Y597314D01*
X742811Y598800D01*
X739794Y599715D01*
X736658Y600023D01*
X733521Y599715D01*
X730505Y598800D01*
X727726Y597314D01*
X725290Y595314D01*
X723290Y592878D01*
X721804Y590099D01*
X720890Y587082D01*
X720581Y583946D01*
X720890Y580810D01*
X721804Y577793D01*
X723290Y575014D01*
X725290Y572578D01*
X727726Y570578D01*
X730505Y569092D01*
X733521Y568177D01*
X736658Y567869D01*
X739794Y568177D01*
X742811Y569092D01*
X745590Y570578D01*
X748026Y572578D01*
X750026Y575014D01*
X750487Y575877D01*
X762508D01*
X764596Y576152D01*
X766543Y576958D01*
X768214Y578240D01*
X774564Y584590D01*
X775846Y586261D01*
X776652Y588208D01*
X776927Y590296D01*
Y642366D01*
X776652Y644454D01*
X775846Y646401D01*
X774564Y648072D01*
X758054Y664582D01*
X756383Y665864D01*
X754436Y666670D01*
X752348Y666945D01*
X543472D01*
X542823Y667791D01*
X540212Y669795D01*
X537171Y671054D01*
X533908Y671484D01*
D02*
G37*
G36*
X279908D02*
X276645Y671054D01*
X273604Y669795D01*
X270993Y667791D01*
X268989Y665180D01*
X267730Y662139D01*
X267300Y658876D01*
X267730Y655613D01*
X268989Y652572D01*
X270993Y649961D01*
X273604Y647957D01*
X276331Y646828D01*
X276331Y646826D01*
Y645526D01*
X276331Y645524D01*
X273604Y644395D01*
X270993Y642391D01*
X268989Y639780D01*
X267730Y636739D01*
X267300Y633476D01*
X267730Y630213D01*
X268989Y627172D01*
X270993Y624561D01*
X273604Y622557D01*
X276331Y621428D01*
X276331Y621426D01*
Y620126D01*
X276331Y620124D01*
X273604Y618995D01*
X270993Y616991D01*
X268989Y614380D01*
X267730Y611339D01*
X267300Y608076D01*
X267730Y604813D01*
X268989Y601772D01*
X270993Y599161D01*
X273604Y597157D01*
X276331Y596028D01*
X276331Y596026D01*
Y594726D01*
X276331Y594724D01*
X273604Y593595D01*
X270993Y591591D01*
X268989Y588980D01*
X267730Y585939D01*
X267300Y582676D01*
X267730Y579413D01*
X268989Y576372D01*
X270993Y573761D01*
X273604Y571757D01*
X276331Y570628D01*
X276331Y570626D01*
Y569326D01*
X276331Y569324D01*
X273604Y568195D01*
X270993Y566191D01*
X268989Y563580D01*
X267730Y560539D01*
X267300Y557276D01*
X267730Y554013D01*
X268989Y550972D01*
X270993Y548361D01*
X273604Y546357D01*
X276331Y545228D01*
X276331Y545226D01*
Y543926D01*
X276331Y543924D01*
X273604Y542795D01*
X270993Y540791D01*
X268989Y538180D01*
X267730Y535139D01*
X267300Y531876D01*
X267730Y528613D01*
X268989Y525572D01*
X270993Y522961D01*
X273604Y520957D01*
X276331Y519828D01*
X276331Y519826D01*
Y518526D01*
X276331Y518524D01*
X273604Y517395D01*
X270993Y515391D01*
X268989Y512780D01*
X267730Y509739D01*
X267300Y506476D01*
X267730Y503213D01*
X268989Y500172D01*
X270993Y497561D01*
X273604Y495557D01*
X276331Y494428D01*
X276331Y494426D01*
Y493126D01*
X276331Y493124D01*
X273604Y491995D01*
X270993Y489991D01*
X268989Y487380D01*
X267730Y484339D01*
X267300Y481076D01*
X267730Y477813D01*
X268989Y474772D01*
X270993Y472161D01*
X273604Y470157D01*
X276331Y469028D01*
X276331Y469026D01*
Y467726D01*
X276331Y467724D01*
X273604Y466595D01*
X270993Y464591D01*
X268989Y461980D01*
X267730Y458939D01*
X267300Y455676D01*
X267730Y452413D01*
X268989Y449372D01*
X270993Y446761D01*
X273604Y444757D01*
X276331Y443628D01*
X276331Y443626D01*
Y442326D01*
X276331Y442324D01*
X273604Y441195D01*
X270993Y439191D01*
X268989Y436580D01*
X267730Y433539D01*
X267300Y430276D01*
X267730Y427013D01*
X268989Y423972D01*
X270993Y421361D01*
X273604Y419357D01*
X276331Y418228D01*
X276331Y418226D01*
Y416926D01*
X276331Y416924D01*
X273604Y415795D01*
X270993Y413791D01*
X268989Y411180D01*
X267730Y408139D01*
X267300Y404876D01*
X267730Y401613D01*
X268989Y398572D01*
X270993Y395961D01*
X273604Y393957D01*
X276331Y392828D01*
X276331Y392826D01*
Y391526D01*
X276331Y391524D01*
X273604Y390395D01*
X270993Y388391D01*
X268989Y385780D01*
X267730Y382739D01*
X267300Y379476D01*
X267730Y376213D01*
X268989Y373172D01*
X270993Y370561D01*
X273604Y368557D01*
X276645Y367298D01*
X279908Y366868D01*
X283171Y367298D01*
X286212Y368557D01*
X288823Y370561D01*
X290827Y373172D01*
X292086Y376213D01*
X292516Y379476D01*
X292086Y382739D01*
X290827Y385780D01*
X288823Y388391D01*
X286212Y390395D01*
X283485Y391524D01*
X283485Y391526D01*
Y392826D01*
X283485Y392828D01*
X286212Y393957D01*
X288823Y395961D01*
X290827Y398572D01*
X292086Y401613D01*
X292516Y404876D01*
X292086Y408139D01*
X290827Y411180D01*
X288823Y413791D01*
X286212Y415795D01*
X283485Y416924D01*
X283485Y416926D01*
Y418226D01*
X283485Y418228D01*
X286212Y419357D01*
X288823Y421361D01*
X290827Y423972D01*
X292086Y427013D01*
X292516Y430276D01*
X292086Y433539D01*
X290827Y436580D01*
X288823Y439191D01*
X286212Y441195D01*
X283485Y442324D01*
X283485Y442326D01*
Y443626D01*
X283485Y443628D01*
X286212Y444757D01*
X288823Y446761D01*
X290827Y449372D01*
X292086Y452413D01*
X292516Y455676D01*
X292086Y458939D01*
X290827Y461980D01*
X288823Y464591D01*
X286212Y466595D01*
X283485Y467724D01*
X283485Y467726D01*
Y469026D01*
X283485Y469028D01*
X286212Y470157D01*
X288823Y472161D01*
X290827Y474772D01*
X292086Y477813D01*
X292516Y481076D01*
X292086Y484339D01*
X290827Y487380D01*
X288823Y489991D01*
X286212Y491995D01*
X283485Y493124D01*
X283485Y493126D01*
Y494426D01*
X283485Y494428D01*
X286212Y495557D01*
X288823Y497561D01*
X290827Y500172D01*
X292086Y503213D01*
X292516Y506476D01*
X292086Y509739D01*
X290827Y512780D01*
X288823Y515391D01*
X286212Y517395D01*
X283485Y518524D01*
X283485Y518526D01*
Y519826D01*
X283485Y519828D01*
X286212Y520957D01*
X288823Y522961D01*
X290827Y525572D01*
X292086Y528613D01*
X292516Y531876D01*
X292086Y535139D01*
X290827Y538180D01*
X288823Y540791D01*
X286212Y542795D01*
X283485Y543924D01*
X283485Y543926D01*
Y545226D01*
X283485Y545228D01*
X286212Y546357D01*
X288823Y548361D01*
X290827Y550972D01*
X292086Y554013D01*
X292516Y557276D01*
X292086Y560539D01*
X290827Y563580D01*
X288823Y566191D01*
X286212Y568195D01*
X283485Y569324D01*
X283485Y569326D01*
Y570626D01*
X283485Y570628D01*
X286212Y571757D01*
X288823Y573761D01*
X290827Y576372D01*
X292086Y579413D01*
X292516Y582676D01*
X292086Y585939D01*
X290827Y588980D01*
X288823Y591591D01*
X286212Y593595D01*
X283485Y594724D01*
X283485Y594726D01*
Y596026D01*
X283485Y596028D01*
X286212Y597157D01*
X288823Y599161D01*
X290827Y601772D01*
X292086Y604813D01*
X292516Y608076D01*
X292086Y611339D01*
X290827Y614380D01*
X288823Y616991D01*
X286212Y618995D01*
X283485Y620124D01*
X283485Y620126D01*
Y621426D01*
X283485Y621428D01*
X286212Y622557D01*
X288823Y624561D01*
X290827Y627172D01*
X292086Y630213D01*
X292516Y633476D01*
X292086Y636739D01*
X290827Y639780D01*
X288823Y642391D01*
X286212Y644395D01*
X283485Y645524D01*
X283485Y645526D01*
Y646826D01*
X283485Y646828D01*
X286212Y647957D01*
X288823Y649961D01*
X290827Y652572D01*
X292086Y655613D01*
X292516Y658876D01*
X292086Y662139D01*
X290827Y665180D01*
X288823Y667791D01*
X286212Y669795D01*
X283171Y671054D01*
X279908Y671484D01*
D02*
G37*
G36*
X79908Y343553D02*
X76771Y343245D01*
X73755Y342330D01*
X70976Y340844D01*
X68540Y338844D01*
X66540Y336408D01*
X65054Y333629D01*
X64139Y330612D01*
X63831Y327476D01*
X64139Y324339D01*
X65054Y321323D01*
X66540Y318544D01*
X68540Y316108D01*
X70976Y314108D01*
X73755Y312622D01*
X76771Y311707D01*
X79908Y311399D01*
X83045Y311707D01*
X86061Y312622D01*
X88840Y314108D01*
X91276Y316108D01*
X93276Y318544D01*
X93737Y319407D01*
X124166D01*
X146002Y297570D01*
X147674Y296288D01*
X149620Y295482D01*
X151708Y295207D01*
X238584D01*
X238686Y295074D01*
X241088Y293231D01*
X243886Y292072D01*
X246888Y291677D01*
X249890Y292072D01*
X252688Y293231D01*
X255090Y295074D01*
X255192Y295207D01*
X270344D01*
X270993Y294361D01*
X273604Y292357D01*
X276331Y291228D01*
X276331Y291226D01*
Y289926D01*
X276331Y289924D01*
X273604Y288795D01*
X270993Y286791D01*
X270344Y285945D01*
X229108D01*
X227020Y285670D01*
X225074Y284864D01*
X223402Y283582D01*
X149566Y209745D01*
X93737D01*
X93276Y210608D01*
X91276Y213044D01*
X88840Y215044D01*
X86061Y216530D01*
X83045Y217444D01*
X79908Y217753D01*
X76771Y217444D01*
X73755Y216530D01*
X70976Y215044D01*
X68540Y213044D01*
X66540Y210608D01*
X65054Y207829D01*
X64139Y204813D01*
X63831Y201676D01*
X64139Y198540D01*
X65054Y195523D01*
X66540Y192744D01*
X68540Y190308D01*
X70976Y188308D01*
X73755Y186822D01*
X76771Y185907D01*
X79908Y185599D01*
X83045Y185907D01*
X86061Y186822D01*
X88840Y188308D01*
X91276Y190308D01*
X93276Y192744D01*
X93737Y193607D01*
X152908D01*
X154996Y193882D01*
X156943Y194688D01*
X158614Y195970D01*
X232450Y269807D01*
X270344D01*
X270993Y268961D01*
X273604Y266957D01*
X276331Y265828D01*
X276331Y265826D01*
Y264526D01*
X276331Y264524D01*
X273604Y263395D01*
X270993Y261391D01*
X270344Y260545D01*
X237998D01*
X235910Y260270D01*
X233964Y259464D01*
X232292Y258182D01*
X133056Y158945D01*
X93737D01*
X93276Y159808D01*
X91276Y162244D01*
X88840Y164244D01*
X86061Y165730D01*
X83045Y166644D01*
X79908Y166953D01*
X76771Y166644D01*
X73755Y165730D01*
X70976Y164244D01*
X68540Y162244D01*
X66540Y159808D01*
X65054Y157029D01*
X64139Y154012D01*
X63831Y150876D01*
X64139Y147739D01*
X65054Y144723D01*
X66540Y141944D01*
X68540Y139508D01*
X70976Y137508D01*
X73755Y136022D01*
X76771Y135107D01*
X79908Y134799D01*
X83045Y135107D01*
X86061Y136022D01*
X88840Y137508D01*
X91276Y139508D01*
X93276Y141944D01*
X93737Y142807D01*
X136398D01*
X138486Y143082D01*
X140433Y143888D01*
X142104Y145170D01*
X203631Y206697D01*
X204090Y206544D01*
X204769Y206040D01*
X204529Y204216D01*
Y170728D01*
X141946Y108145D01*
X95908D01*
Y116076D01*
X63908D01*
Y84076D01*
X95908D01*
Y92007D01*
X145288D01*
X147376Y92282D01*
X149323Y93088D01*
X150994Y94370D01*
X218304Y161680D01*
X219586Y163351D01*
X220392Y165298D01*
X220667Y167386D01*
Y200874D01*
X238800Y219007D01*
X270344D01*
X270993Y218161D01*
X273604Y216157D01*
X276645Y214898D01*
X279908Y214468D01*
X283171Y214898D01*
X286212Y216157D01*
X288823Y218161D01*
X290827Y220772D01*
X292086Y223813D01*
X292516Y227076D01*
X292086Y230339D01*
X290827Y233380D01*
X288823Y235991D01*
X286212Y237995D01*
X283485Y239124D01*
X283485Y239126D01*
Y240426D01*
X283485Y240428D01*
X286212Y241557D01*
X288823Y243561D01*
X290827Y246172D01*
X292086Y249213D01*
X292516Y252476D01*
X292086Y255739D01*
X290827Y258780D01*
X288823Y261391D01*
X286212Y263395D01*
X283485Y264524D01*
X283485Y264526D01*
Y265826D01*
X283485Y265828D01*
X286212Y266957D01*
X288823Y268961D01*
X290827Y271572D01*
X292086Y274613D01*
X292516Y277876D01*
X292086Y281139D01*
X290827Y284180D01*
X288823Y286791D01*
X286212Y288795D01*
X283485Y289924D01*
X283485Y289926D01*
Y291226D01*
X283485Y291228D01*
X286212Y292357D01*
X288823Y294361D01*
X290827Y296972D01*
X292086Y300013D01*
X292516Y303276D01*
X292086Y306539D01*
X290827Y309580D01*
X288823Y312191D01*
X286212Y314195D01*
X283485Y315324D01*
X283485Y315326D01*
Y316626D01*
X283485Y316628D01*
X286212Y317757D01*
X288823Y319761D01*
X290827Y322372D01*
X292086Y325413D01*
X292516Y328676D01*
X292086Y331939D01*
X290827Y334980D01*
X288823Y337591D01*
X286212Y339595D01*
X283171Y340854D01*
X279908Y341284D01*
X276645Y340854D01*
X273604Y339595D01*
X270993Y337591D01*
X268989Y334980D01*
X267730Y331939D01*
X267300Y328676D01*
X267730Y325413D01*
X268989Y322372D01*
X270993Y319761D01*
X273604Y317757D01*
X276331Y316628D01*
X276331Y316626D01*
Y315326D01*
X276331Y315324D01*
X273604Y314195D01*
X270993Y312191D01*
X270344Y311345D01*
X255192D01*
X255090Y311478D01*
X252688Y313321D01*
X249890Y314480D01*
X246888Y314875D01*
X243886Y314480D01*
X241088Y313321D01*
X238686Y311478D01*
X238584Y311345D01*
X155050D01*
X133214Y333182D01*
X131543Y334464D01*
X129596Y335270D01*
X127508Y335545D01*
X93737D01*
X93276Y336408D01*
X91276Y338844D01*
X88840Y340844D01*
X86061Y342330D01*
X83045Y343245D01*
X79908Y343553D01*
D02*
G37*
G36*
X734568Y48163D02*
X731039Y47815D01*
X727646Y46786D01*
X724519Y45115D01*
X721778Y42866D01*
X719529Y40125D01*
X717858Y36998D01*
X716829Y33605D01*
X716481Y30076D01*
X716829Y26547D01*
X717858Y23154D01*
X719529Y20027D01*
X721778Y17286D01*
X724519Y15037D01*
X727646Y13366D01*
X731039Y12336D01*
X734568Y11989D01*
X738097Y12336D01*
X741490Y13366D01*
X744617Y15037D01*
X747357Y17286D01*
X749607Y20027D01*
X751278Y23154D01*
X752308Y26547D01*
X752655Y30076D01*
X752308Y33605D01*
X751278Y36998D01*
X749607Y40125D01*
X747357Y42866D01*
X744617Y45115D01*
X741490Y46786D01*
X738097Y47815D01*
X734568Y48163D01*
D02*
G37*
G36*
X79908D02*
X76379Y47815D01*
X72986Y46786D01*
X69859Y45115D01*
X67119Y42866D01*
X64869Y40125D01*
X63198Y36998D01*
X62168Y33605D01*
X61821Y30076D01*
X62168Y26547D01*
X63198Y23154D01*
X64869Y20027D01*
X67119Y17286D01*
X69859Y15037D01*
X72986Y13366D01*
X76379Y12336D01*
X79908Y11989D01*
X83437Y12336D01*
X86830Y13366D01*
X89957Y15037D01*
X92697Y17286D01*
X94947Y20027D01*
X96618Y23154D01*
X97647Y26547D01*
X97995Y30076D01*
X97647Y33605D01*
X96618Y36998D01*
X94947Y40125D01*
X92697Y42866D01*
X89957Y45115D01*
X86830Y46786D01*
X83437Y47815D01*
X79908Y48163D01*
D02*
G37*
%LPD*%
G36*
X579828Y595576D02*
X587489D01*
X587741Y594306D01*
X586024Y593595D01*
X583413Y591591D01*
X582764Y590745D01*
X543472D01*
X542823Y591591D01*
X540212Y593595D01*
X537485Y594724D01*
X537485Y594726D01*
Y596026D01*
X537485Y596028D01*
X540212Y597157D01*
X542823Y599161D01*
X543472Y600007D01*
X579828D01*
Y595576D01*
D02*
G37*
G36*
X754439Y339304D02*
Y307888D01*
X743926Y297375D01*
X709168D01*
X707080Y297100D01*
X705134Y296294D01*
X703462Y295012D01*
X693302Y284852D01*
X692020Y283181D01*
X691214Y281234D01*
X690939Y279146D01*
Y243586D01*
X691214Y241498D01*
X692020Y239552D01*
X693302Y237880D01*
X709812Y221370D01*
X711484Y220088D01*
X713430Y219282D01*
X715518Y219007D01*
X734339D01*
X734401Y217737D01*
X731432Y217444D01*
X728415Y216530D01*
X725636Y215044D01*
X723199Y213044D01*
X721200Y210608D01*
X720739Y209745D01*
X704890D01*
X688027Y226608D01*
Y247396D01*
X687752Y249484D01*
X686946Y251430D01*
X685664Y253102D01*
X629784Y308982D01*
X628112Y310264D01*
X626166Y311070D01*
X624078Y311345D01*
X543472D01*
X542823Y312191D01*
X540212Y314195D01*
X537485Y315324D01*
X537485Y315326D01*
Y316626D01*
X537485Y316628D01*
X540212Y317757D01*
X542823Y319761D01*
X543472Y320607D01*
X561164D01*
X561266Y320474D01*
X563668Y318631D01*
X566466Y317472D01*
X569468Y317077D01*
X572470Y317472D01*
X575268Y318631D01*
X577670Y320474D01*
X577772Y320607D01*
X722187D01*
X723290Y318544D01*
X725290Y316108D01*
X727726Y314108D01*
X730505Y312622D01*
X733521Y311707D01*
X736658Y311399D01*
X739794Y311707D01*
X742811Y312622D01*
X745590Y314108D01*
X748026Y316108D01*
X750026Y318544D01*
X751512Y321323D01*
X752427Y324339D01*
X752735Y327476D01*
X752427Y330612D01*
X751512Y333629D01*
X750026Y336408D01*
X748026Y338844D01*
X745590Y340844D01*
X743059Y342197D01*
X743212Y343315D01*
X743274Y343467D01*
X750276D01*
X754439Y339304D01*
D02*
G37*
G36*
X671889Y244054D02*
Y223266D01*
X672164Y221178D01*
X672970Y219231D01*
X674252Y217560D01*
X695842Y195970D01*
X697514Y194688D01*
X699460Y193882D01*
X701548Y193607D01*
X720739D01*
X721200Y192744D01*
X723199Y190308D01*
X725636Y188308D01*
X728415Y186822D01*
X731432Y185907D01*
X734568Y185599D01*
X737704Y185907D01*
X740721Y186822D01*
X743500Y188308D01*
X745937Y190308D01*
X747936Y192744D01*
X749422Y195523D01*
X750337Y198540D01*
X750645Y201676D01*
X750337Y204813D01*
X749422Y207829D01*
X747936Y210608D01*
X745937Y213044D01*
X743500Y215044D01*
X740721Y216530D01*
X737704Y217444D01*
X734735Y217737D01*
X734797Y219007D01*
X750276D01*
X762059Y207224D01*
Y88178D01*
X756626Y82745D01*
X734797D01*
X734735Y84015D01*
X737704Y84307D01*
X740721Y85222D01*
X743500Y86708D01*
X745937Y88708D01*
X747936Y91144D01*
X749422Y93923D01*
X750337Y96939D01*
X750645Y100076D01*
X750337Y103212D01*
X749422Y106229D01*
X747936Y109008D01*
X745937Y111445D01*
X743500Y113444D01*
X740721Y114930D01*
X737704Y115844D01*
X734568Y116153D01*
X731432Y115844D01*
X728415Y114930D01*
X725636Y113444D01*
X723199Y111445D01*
X721200Y109008D01*
X720739Y108145D01*
X688380D01*
X642307Y154218D01*
Y227076D01*
X642032Y229164D01*
X641226Y231110D01*
X639944Y232782D01*
X614544Y258182D01*
X612873Y259464D01*
X610926Y260270D01*
X608838Y260545D01*
X543472D01*
X542823Y261391D01*
X540212Y263395D01*
X537485Y264524D01*
X537485Y264526D01*
Y265826D01*
X537485Y265828D01*
X540212Y266957D01*
X542823Y268961D01*
X543472Y269807D01*
X613116D01*
X645219Y237704D01*
Y169926D01*
X645494Y167838D01*
X646300Y165891D01*
X647582Y164220D01*
X667902Y143900D01*
X669574Y142618D01*
X671520Y141812D01*
X673608Y141537D01*
X721534D01*
X723199Y139508D01*
X725636Y137508D01*
X728415Y136022D01*
X731432Y135107D01*
X734568Y134799D01*
X737704Y135107D01*
X740721Y136022D01*
X743500Y137508D01*
X745937Y139508D01*
X747936Y141944D01*
X749422Y144723D01*
X750337Y147739D01*
X750645Y150876D01*
X750337Y154012D01*
X749422Y157029D01*
X747936Y159808D01*
X745937Y162244D01*
X743500Y164244D01*
X740721Y165730D01*
X737704Y166644D01*
X734568Y166953D01*
X731432Y166644D01*
X728415Y165730D01*
X725636Y164244D01*
X723199Y162244D01*
X721200Y159808D01*
X720060Y157675D01*
X676950D01*
X661357Y173268D01*
Y241046D01*
X661082Y243134D01*
X660276Y245081D01*
X658994Y246752D01*
X622164Y283582D01*
X620493Y284864D01*
X618546Y285670D01*
X616458Y285945D01*
X543472D01*
X542823Y286791D01*
X540212Y288795D01*
X537485Y289924D01*
X537485Y289926D01*
Y291226D01*
X537485Y291228D01*
X540212Y292357D01*
X542823Y294361D01*
X543472Y295207D01*
X620736D01*
X671889Y244054D01*
D02*
G37*
G36*
X626169Y223734D02*
Y150876D01*
X626444Y148788D01*
X627250Y146841D01*
X628532Y145170D01*
X679332Y94370D01*
X681003Y93088D01*
X682950Y92282D01*
X685038Y92007D01*
X720739D01*
X721200Y91144D01*
X723199Y88708D01*
X725636Y86708D01*
X728415Y85222D01*
X731432Y84307D01*
X734401Y84015D01*
X734339Y82745D01*
X624880D01*
X577537Y130088D01*
Y195326D01*
Y201676D01*
Y218772D01*
X577670Y218874D01*
X579513Y221276D01*
X580672Y224074D01*
X581067Y227076D01*
X580672Y230078D01*
X579513Y232876D01*
X577670Y235278D01*
X575268Y237121D01*
X572470Y238280D01*
X569468Y238675D01*
X566466Y238280D01*
X563668Y237121D01*
X561266Y235278D01*
X559423Y232876D01*
X558264Y230078D01*
X557869Y227076D01*
X558264Y224074D01*
X559423Y221276D01*
X561266Y218874D01*
X561399Y218772D01*
Y209745D01*
X543472D01*
X542823Y210591D01*
X540212Y212595D01*
X537485Y213724D01*
X537485Y213726D01*
Y215026D01*
X537485Y215028D01*
X540212Y216157D01*
X542823Y218161D01*
X544827Y220772D01*
X546086Y223813D01*
X546516Y227076D01*
X546086Y230339D01*
X544827Y233380D01*
X542823Y235991D01*
X540212Y237995D01*
X537485Y239124D01*
X537485Y239126D01*
Y240426D01*
X537485Y240428D01*
X540212Y241557D01*
X542823Y243561D01*
X543472Y244407D01*
X605496D01*
X626169Y223734D01*
D02*
G37*
G36*
X270993Y243561D02*
X273604Y241557D01*
X276331Y240428D01*
X276331Y240426D01*
Y239126D01*
X276331Y239124D01*
X273604Y237995D01*
X270993Y235991D01*
X270344Y235145D01*
X235458D01*
X233634Y234905D01*
X233130Y235584D01*
X232977Y236043D01*
X241340Y244407D01*
X270344D01*
X270993Y243561D01*
D02*
G37*
D10*
X572159Y374245D02*
Y374890D01*
X569468Y377582D02*
X572159Y374890D01*
X569468Y377582D02*
Y379476D01*
X572159Y374245D02*
X594868Y351536D01*
X569468Y126746D02*
Y195326D01*
Y126746D02*
X621538Y74676D01*
X759968D01*
X770128Y84836D01*
Y210566D01*
X753618Y227076D02*
X770128Y210566D01*
X715518Y227076D02*
X753618D01*
X699008Y243586D02*
X715518Y227076D01*
X699008Y243586D02*
Y279146D01*
X709168Y289306D01*
X747268D01*
X762508Y304546D01*
Y342646D01*
X753618Y351536D02*
X762508Y342646D01*
X594868Y351536D02*
X753618D01*
X533908Y481076D02*
X569468D01*
X618998D01*
X569468D02*
X618998D01*
X569468D02*
X618998D01*
X330216Y354076D02*
X508016Y531876D01*
X293878Y354076D02*
X330216D01*
X533908Y201676D02*
X569468D01*
X752348Y658876D02*
X768858Y642366D01*
Y590296D02*
Y642366D01*
X762508Y583946D02*
X768858Y590296D01*
X519938Y685546D02*
X736658D01*
X502158Y667766D02*
X519938Y685546D01*
X502158Y537734D02*
Y667766D01*
Y537734D02*
X508016Y531876D01*
X533908D01*
X734568Y252476D02*
X758698D01*
X784098Y277876D01*
Y399796D01*
X736658Y378276D02*
X762578D01*
X784098Y399796D01*
Y519176D01*
X736658Y504076D02*
X768998D01*
X784098Y519176D01*
Y675386D01*
X773938Y685546D02*
X784098Y675386D01*
X736658Y685546D02*
X773938D01*
X570738Y557276D02*
X592328D01*
X546947Y533485D02*
X570738Y557276D01*
X535517Y533485D02*
X546947D01*
X533908Y531876D02*
X535517Y533485D01*
X533908Y608076D02*
X592328D01*
X533908Y582676D02*
X592328D01*
X736658Y583946D02*
X762508D01*
X533908Y658876D02*
X752348D01*
X669798Y557276D02*
Y608076D01*
X618998Y506476D02*
X669798Y557276D01*
X533908Y506476D02*
X618998D01*
X696468Y634746D02*
X736658D01*
X669798Y608076D02*
X696468Y634746D01*
X646798Y453276D02*
X736658D01*
X618998Y481076D02*
X646798Y453276D01*
X569468Y201676D02*
Y227076D01*
Y195326D02*
Y201676D01*
X550418Y176276D02*
X569468Y195326D01*
X255778Y176276D02*
X550418D01*
X246888Y185166D02*
X255778Y176276D01*
X246888Y185166D02*
Y201676D01*
X735458Y328676D02*
X736658Y327476D01*
X569468Y328676D02*
X735458D01*
X533908D02*
X569468D01*
X701548Y201676D02*
X734568D01*
X679958Y223266D02*
X701548Y201676D01*
X679958Y223266D02*
Y247396D01*
X624078Y303276D02*
X679958Y247396D01*
X533908Y303276D02*
X624078D01*
X733298Y149606D02*
X734568Y150876D01*
X673608Y149606D02*
X733298D01*
X653288Y169926D02*
X673608Y149606D01*
X653288Y169926D02*
Y241046D01*
X616458Y277876D02*
X653288Y241046D01*
X533908Y277876D02*
X616458D01*
X685038Y100076D02*
X734568D01*
X634238Y150876D02*
X685038Y100076D01*
X634238Y150876D02*
Y227076D01*
X608838Y252476D02*
X634238Y227076D01*
X533908Y252476D02*
X608838D01*
X79908Y327476D02*
X127508D01*
X246888Y303276D02*
X279908D01*
X127508Y327476D02*
X151708Y303276D01*
X246888D01*
X300228Y201676D02*
X309118Y210566D01*
X279908Y201676D02*
X300228D01*
X309118Y210566D02*
Y338836D01*
X293878Y354076D02*
X309118Y338836D01*
X279908Y354076D02*
X293878D01*
X104108D02*
X279908D01*
X79908Y378276D02*
X104108Y354076D01*
X229108Y277876D02*
X279908D01*
X152908Y201676D02*
X229108Y277876D01*
X79908Y201676D02*
X152908D01*
X237998Y252476D02*
X279908D01*
X136398Y150876D02*
X237998Y252476D01*
X79908Y150876D02*
X136398D01*
X235458Y227076D02*
X279908D01*
X212598Y204216D02*
X235458Y227076D01*
X212598Y167386D02*
Y204216D01*
X145288Y100076D02*
X212598Y167386D01*
X79908Y100076D02*
X145288D01*
D11*
X79908Y755546D02*
D03*
X736658D02*
D03*
X79908Y30076D02*
D03*
X734568D02*
D03*
X592328Y582676D02*
D03*
Y557276D02*
D03*
X279908Y658876D02*
D03*
Y633476D02*
D03*
Y608076D02*
D03*
Y582676D02*
D03*
Y557276D02*
D03*
Y531876D02*
D03*
Y506476D02*
D03*
Y481076D02*
D03*
Y455676D02*
D03*
Y430276D02*
D03*
Y404876D02*
D03*
Y379476D02*
D03*
Y354076D02*
D03*
Y328676D02*
D03*
Y303276D02*
D03*
Y277876D02*
D03*
Y252476D02*
D03*
Y227076D02*
D03*
Y201676D02*
D03*
X533908D02*
D03*
Y227076D02*
D03*
Y252476D02*
D03*
Y277876D02*
D03*
Y303276D02*
D03*
Y328676D02*
D03*
Y354076D02*
D03*
Y379476D02*
D03*
Y404876D02*
D03*
Y430276D02*
D03*
Y455676D02*
D03*
Y481076D02*
D03*
Y506476D02*
D03*
Y531876D02*
D03*
Y557276D02*
D03*
Y582676D02*
D03*
Y608076D02*
D03*
Y633476D02*
D03*
Y658876D02*
D03*
D12*
X79908Y100076D02*
D03*
X734568Y252476D02*
D03*
D13*
X79908Y150876D02*
D03*
Y201676D02*
D03*
Y252476D02*
D03*
Y327476D02*
D03*
Y378276D02*
D03*
X734568Y201676D02*
D03*
Y150876D02*
D03*
Y100076D02*
D03*
X736658Y378276D02*
D03*
Y327476D02*
D03*
Y504076D02*
D03*
Y453276D02*
D03*
Y685546D02*
D03*
Y634746D02*
D03*
Y583946D02*
D03*
D14*
X592328Y608076D02*
D03*
D15*
X569468Y379476D02*
D03*
Y481076D02*
D03*
Y227076D02*
D03*
Y328676D02*
D03*
X246888Y303276D02*
D03*
Y201676D02*
D03*
M02*
