G04*
G04 #@! TF.GenerationSoftware,Altium Limited,Altium Designer,19.0.5 (141)*
G04*
G04 Layer_Physical_Order=2*
G04 Layer_Color=16711680*
%FSLAX44Y44*%
%MOMM*%
G71*
G01*
G75*
%ADD10C,0.5000*%
%ADD11C,1.2000*%
%ADD12R,1.5000X1.5000*%
%ADD13C,1.5000*%
%ADD14C,2.0000*%
%ADD15C,1.9000*%
%ADD16R,2.0000X2.0000*%
%ADD17C,1.4000*%
%ADD18C,1.7000*%
%ADD19O,1.6800X1.7000*%
G36*
X600168Y3590D02*
X3844D01*
Y533112D01*
X600168D01*
Y3590D01*
D02*
G37*
%LPC*%
G36*
X576634Y509578D02*
X551634D01*
Y502176D01*
X467041D01*
X465753Y503853D01*
X463769Y505376D01*
X461458Y506334D01*
X458978Y506660D01*
X456498Y506334D01*
X454187Y505376D01*
X452203Y503853D01*
X450915Y502176D01*
X448056D01*
X446105Y501788D01*
X444451Y500683D01*
X427299Y483531D01*
X426194Y481877D01*
X425991Y480855D01*
X425545Y480610D01*
X424612Y480431D01*
X422358Y482160D01*
X419439Y483369D01*
X416306Y483782D01*
X413173Y483369D01*
X410254Y482160D01*
X407747Y480237D01*
X405824Y477730D01*
X404615Y474811D01*
X404202Y471678D01*
X404615Y468545D01*
X405824Y465626D01*
X407747Y463120D01*
X410254Y461196D01*
X413173Y459987D01*
X415401Y459694D01*
X415972Y459618D01*
Y458338D01*
X415401Y458262D01*
X413173Y457969D01*
X410254Y456760D01*
X407747Y454837D01*
X405824Y452330D01*
X404615Y449411D01*
X404202Y446278D01*
X404615Y443145D01*
X405824Y440226D01*
X407747Y437719D01*
X410254Y435796D01*
X413173Y434587D01*
X415401Y434294D01*
X415972Y434218D01*
Y432938D01*
X415401Y432862D01*
X413173Y432569D01*
X410254Y431360D01*
X407747Y429436D01*
X405824Y426930D01*
X404615Y424011D01*
X404202Y420878D01*
X404615Y417745D01*
X405824Y414826D01*
X407747Y412319D01*
X410254Y410396D01*
X413173Y409187D01*
X415401Y408894D01*
X415972Y408818D01*
Y407538D01*
X415401Y407462D01*
X413173Y407169D01*
X410254Y405960D01*
X407747Y404036D01*
X405824Y401530D01*
X404615Y398611D01*
X404202Y395478D01*
X404615Y392345D01*
X405824Y389426D01*
X407747Y386920D01*
X410254Y384996D01*
X413173Y383787D01*
X415401Y383494D01*
X415972Y383418D01*
Y382138D01*
X415401Y382062D01*
X413173Y381769D01*
X410254Y380560D01*
X407747Y378637D01*
X405824Y376130D01*
X404615Y373211D01*
X404202Y370078D01*
X404615Y366945D01*
X405824Y364026D01*
X407747Y361520D01*
X410254Y359596D01*
X413173Y358387D01*
X416306Y357975D01*
X419439Y358387D01*
X422358Y359596D01*
X424865Y361520D01*
X426788Y364026D01*
X427997Y366945D01*
X428410Y370078D01*
X427997Y373211D01*
X427602Y374165D01*
X432133Y378695D01*
X433306Y378209D01*
Y342218D01*
X421291Y330202D01*
X419439Y330969D01*
X416306Y331381D01*
X413173Y330969D01*
X410254Y329760D01*
X407747Y327836D01*
X405824Y325330D01*
X404615Y322411D01*
X404202Y319278D01*
X404615Y316145D01*
X405824Y313226D01*
X407747Y310720D01*
X410254Y308796D01*
X413173Y307587D01*
X415401Y307294D01*
X415972Y307218D01*
Y305938D01*
X415401Y305862D01*
X413173Y305569D01*
X410254Y304360D01*
X407747Y302437D01*
X405824Y299930D01*
X404615Y297011D01*
X404202Y293878D01*
X404615Y290745D01*
X405824Y287826D01*
X407747Y285319D01*
X410254Y283396D01*
X413173Y282187D01*
X415401Y281894D01*
X415972Y281818D01*
Y280538D01*
X415401Y280462D01*
X413173Y280169D01*
X410254Y278960D01*
X407747Y277036D01*
X405824Y274530D01*
X404615Y271611D01*
X404202Y268478D01*
X404615Y265345D01*
X405824Y262426D01*
X407747Y259919D01*
X410254Y257996D01*
X413173Y256787D01*
X415401Y256494D01*
X415972Y256418D01*
Y255138D01*
X415401Y255062D01*
X413173Y254769D01*
X410254Y253560D01*
X407747Y251637D01*
X405824Y249130D01*
X404615Y246211D01*
X404202Y243078D01*
X404615Y239945D01*
X405824Y237026D01*
X407747Y234520D01*
X410254Y232596D01*
X413173Y231387D01*
X415401Y231094D01*
X415972Y231018D01*
Y229738D01*
X415401Y229662D01*
X413173Y229369D01*
X410254Y228160D01*
X407747Y226236D01*
X405824Y223730D01*
X404615Y220811D01*
X404202Y217678D01*
X404615Y214545D01*
X405824Y211626D01*
X407747Y209119D01*
X410254Y207196D01*
X413173Y205987D01*
X415401Y205694D01*
X415972Y205618D01*
Y204338D01*
X415401Y204262D01*
X413173Y203969D01*
X410254Y202760D01*
X407747Y200837D01*
X405824Y198330D01*
X405008Y196360D01*
X389317D01*
X388030Y198037D01*
X386352Y199325D01*
Y212344D01*
X385964Y214295D01*
X384859Y215949D01*
X380287Y220521D01*
X378633Y221626D01*
X376682Y222014D01*
X344114D01*
X343374Y222978D01*
X341599Y224341D01*
X339531Y225197D01*
X337312Y225489D01*
X335093Y225197D01*
X333025Y224341D01*
X331250Y222978D01*
X329887Y221203D01*
X329031Y219135D01*
X328739Y216916D01*
X329031Y214697D01*
X329887Y212629D01*
X331250Y210854D01*
X333025Y209491D01*
X335093Y208635D01*
X337312Y208343D01*
X339531Y208635D01*
X341599Y209491D01*
X343374Y210854D01*
X344114Y211818D01*
X374570D01*
X376156Y210232D01*
Y199325D01*
X374478Y198037D01*
X372956Y196053D01*
X371998Y193742D01*
X371672Y191262D01*
X371998Y188782D01*
X372956Y186471D01*
X374478Y184487D01*
X376156Y183199D01*
Y39370D01*
X376544Y37419D01*
X377649Y35765D01*
X396699Y16715D01*
X398353Y15610D01*
X400304Y15222D01*
X502920D01*
X504871Y15610D01*
X506525Y16715D01*
X544117Y54307D01*
X545222Y55961D01*
X545610Y57912D01*
Y305990D01*
X558844Y319224D01*
X576634D01*
Y344224D01*
X551634D01*
Y326434D01*
X536907Y311707D01*
X535802Y310053D01*
X535414Y308102D01*
Y60024D01*
X500808Y25418D01*
X402416D01*
X386352Y41482D01*
Y183199D01*
X388030Y184487D01*
X389317Y186164D01*
X405872D01*
X407747Y183720D01*
X410254Y181796D01*
X413173Y180587D01*
X415401Y180294D01*
X415972Y180218D01*
Y178938D01*
X415401Y178862D01*
X413173Y178569D01*
X410254Y177360D01*
X407747Y175436D01*
X405824Y172930D01*
X404615Y170011D01*
X404202Y166878D01*
X404615Y163745D01*
X405824Y160826D01*
X407747Y158320D01*
X410254Y156396D01*
X413173Y155187D01*
X415401Y154894D01*
X415972Y154818D01*
Y153538D01*
X415401Y153462D01*
X413173Y153169D01*
X410254Y151960D01*
X407747Y150036D01*
X405824Y147530D01*
X404615Y144611D01*
X404202Y141478D01*
X404615Y138345D01*
X405824Y135426D01*
X407747Y132920D01*
X410254Y130996D01*
X413173Y129787D01*
X415401Y129494D01*
X415972Y129418D01*
Y128138D01*
X415401Y128062D01*
X413173Y127769D01*
X410254Y126560D01*
X407747Y124636D01*
X405824Y122130D01*
X404615Y119211D01*
X404202Y116078D01*
X404615Y112945D01*
X405824Y110026D01*
X407747Y107520D01*
X410254Y105596D01*
X413173Y104387D01*
X415401Y104094D01*
X415972Y104018D01*
Y102738D01*
X415401Y102662D01*
X413173Y102369D01*
X410254Y101160D01*
X407747Y99236D01*
X405824Y96730D01*
X404615Y93811D01*
X404202Y90678D01*
X404615Y87545D01*
X405824Y84626D01*
X407747Y82120D01*
X410254Y80196D01*
X413173Y78987D01*
X415401Y78694D01*
X415972Y78618D01*
Y77338D01*
X415401Y77262D01*
X413173Y76969D01*
X410254Y75760D01*
X407747Y73836D01*
X405824Y71330D01*
X404615Y68411D01*
X404202Y65278D01*
X404615Y62145D01*
X405824Y59226D01*
X407747Y56719D01*
X410254Y54796D01*
X413173Y53587D01*
X415401Y53294D01*
X415972Y53218D01*
Y51938D01*
X415401Y51862D01*
X413173Y51569D01*
X410254Y50360D01*
X407747Y48436D01*
X405824Y45930D01*
X404615Y43011D01*
X404202Y39878D01*
X404615Y36745D01*
X405824Y33826D01*
X407747Y31319D01*
X410254Y29396D01*
X413173Y28187D01*
X416306Y27775D01*
X419439Y28187D01*
X422358Y29396D01*
X424865Y31319D01*
X426788Y33826D01*
X427997Y36745D01*
X428410Y39878D01*
X427997Y43011D01*
X426788Y45930D01*
X424865Y48436D01*
X422358Y50360D01*
X419439Y51569D01*
X417211Y51862D01*
X416640Y51938D01*
Y53218D01*
X417211Y53294D01*
X419439Y53587D01*
X422358Y54796D01*
X424865Y56719D01*
X426788Y59226D01*
X427997Y62145D01*
X428410Y65278D01*
X427997Y68411D01*
X426788Y71330D01*
X424865Y73836D01*
X422358Y75760D01*
X419439Y76969D01*
X417211Y77262D01*
X416640Y77338D01*
Y78618D01*
X417211Y78694D01*
X419439Y78987D01*
X422358Y80196D01*
X424865Y82120D01*
X426448Y84183D01*
X427718Y83752D01*
Y81534D01*
X428106Y79583D01*
X429211Y77929D01*
X443181Y63959D01*
X444835Y62854D01*
X446786Y62466D01*
X468573D01*
X470134Y60432D01*
X472223Y58829D01*
X474655Y57821D01*
X477266Y57478D01*
X479877Y57821D01*
X482309Y58829D01*
X484398Y60432D01*
X486001Y62521D01*
X487009Y64953D01*
X487352Y67564D01*
X487009Y70174D01*
X486001Y72607D01*
X484398Y74696D01*
X482309Y76299D01*
X479877Y77307D01*
X477266Y77650D01*
X474655Y77307D01*
X472223Y76299D01*
X470134Y74696D01*
X468573Y72662D01*
X448898D01*
X437914Y83646D01*
Y98164D01*
X439184Y98690D01*
X448515Y89359D01*
X450169Y88254D01*
X452120Y87866D01*
X467266D01*
Y82964D01*
X487266D01*
Y102964D01*
X467266D01*
Y98062D01*
X454232D01*
X447058Y105236D01*
Y217424D01*
X446670Y219375D01*
X445565Y221029D01*
X427602Y238992D01*
X427997Y239945D01*
X428410Y243078D01*
X427997Y246211D01*
X426788Y249130D01*
X424865Y251637D01*
X422358Y253560D01*
X419439Y254769D01*
X417211Y255062D01*
X416640Y255138D01*
Y256418D01*
X417211Y256494D01*
X419439Y256787D01*
X422358Y257996D01*
X424865Y259919D01*
X426788Y262426D01*
X427997Y265345D01*
X428410Y268478D01*
X427997Y271611D01*
X426788Y274530D01*
X424865Y277036D01*
X422358Y278960D01*
X419439Y280169D01*
X417211Y280462D01*
X416640Y280538D01*
Y281818D01*
X417211Y281894D01*
X419439Y282187D01*
X422358Y283396D01*
X424865Y285319D01*
X426788Y287826D01*
X427997Y290745D01*
X428410Y293878D01*
X427997Y297011D01*
X427602Y297964D01*
X450583Y320945D01*
X451688Y322599D01*
X452076Y324550D01*
Y386323D01*
X453346Y387016D01*
X453880Y386673D01*
Y280924D01*
X454268Y278973D01*
X455373Y277319D01*
X462413Y270279D01*
X464067Y269174D01*
X464810Y269026D01*
X464869Y268580D01*
X465967Y265929D01*
X467714Y263652D01*
X469991Y261905D01*
X472643Y260807D01*
X475488Y260432D01*
X478334Y260807D01*
X480985Y261905D01*
X483262Y263652D01*
X485009Y265929D01*
X486107Y268580D01*
X486482Y271426D01*
Y271626D01*
X486107Y274471D01*
X485009Y277123D01*
X483262Y279400D01*
X480985Y281147D01*
X478334Y282245D01*
X475488Y282620D01*
X472643Y282245D01*
X469991Y281147D01*
X467714Y279400D01*
X467712Y279400D01*
X464076Y283036D01*
Y387415D01*
X465753Y388703D01*
X467276Y390687D01*
X468233Y392998D01*
X468560Y395478D01*
X468233Y397958D01*
X467276Y400269D01*
X465753Y402253D01*
X463769Y403776D01*
X461458Y404734D01*
X458978Y405060D01*
X456498Y404734D01*
X454187Y403776D01*
X453346Y403131D01*
X452076Y403757D01*
Y408798D01*
X459058Y415780D01*
X500699D01*
X501987Y414103D01*
X503971Y412580D01*
X506282Y411623D01*
X508762Y411296D01*
X511242Y411623D01*
X513553Y412580D01*
X515537Y414103D01*
X516825Y415780D01*
X552716D01*
X553215Y414574D01*
X555219Y411963D01*
X557830Y409959D01*
X560871Y408700D01*
X564134Y408270D01*
X567397Y408700D01*
X570438Y409959D01*
X573049Y411963D01*
X575053Y414574D01*
X576312Y417615D01*
X576742Y420878D01*
X576312Y424141D01*
X575053Y427182D01*
X573049Y429793D01*
X570438Y431797D01*
X567397Y433056D01*
X564134Y433486D01*
X560871Y433056D01*
X557830Y431797D01*
X555219Y429793D01*
X553215Y427182D01*
X552716Y425976D01*
X516825D01*
X515537Y427654D01*
X513553Y429176D01*
X511242Y430134D01*
X508762Y430460D01*
X506282Y430134D01*
X503971Y429176D01*
X501987Y427654D01*
X500699Y425976D01*
X456946D01*
X454995Y425588D01*
X453341Y424483D01*
X444675Y415817D01*
X443502Y416303D01*
Y441626D01*
X455756Y453880D01*
X475807D01*
X477094Y452203D01*
X479079Y450680D01*
X481390Y449723D01*
X483870Y449396D01*
X486350Y449723D01*
X488661Y450680D01*
X490645Y452203D01*
X491933Y453880D01*
X552716D01*
X553215Y452674D01*
X555219Y450063D01*
X557830Y448059D01*
X560871Y446800D01*
X564134Y446370D01*
X567397Y446800D01*
X570438Y448059D01*
X573049Y450063D01*
X575053Y452674D01*
X576312Y455715D01*
X576742Y458978D01*
X576312Y462241D01*
X575053Y465282D01*
X573049Y467893D01*
X570438Y469897D01*
X567397Y471156D01*
X564134Y471586D01*
X560871Y471156D01*
X557830Y469897D01*
X555219Y467893D01*
X553215Y465282D01*
X552716Y464076D01*
X491933D01*
X490645Y465753D01*
X488661Y467276D01*
X486350Y468233D01*
X483870Y468560D01*
X481390Y468233D01*
X479079Y467276D01*
X477094Y465753D01*
X475807Y464076D01*
X453644D01*
X451693Y463688D01*
X450039Y462583D01*
X437175Y449719D01*
X436002Y450205D01*
Y477814D01*
X449799Y491612D01*
X451255Y491538D01*
X452203Y490303D01*
X454187Y488780D01*
X456498Y487822D01*
X458978Y487496D01*
X461458Y487822D01*
X463769Y488780D01*
X465753Y490303D01*
X467041Y491980D01*
X551634D01*
Y484578D01*
X576634D01*
Y509578D01*
D02*
G37*
G36*
X302006Y514663D02*
X298575Y514325D01*
X295277Y513324D01*
X292236Y511699D01*
X289572Y509512D01*
X287385Y506847D01*
X285760Y503807D01*
X284759Y500509D01*
X284421Y497078D01*
X284759Y493647D01*
X285760Y490349D01*
X287385Y487309D01*
X289572Y484644D01*
X292236Y482457D01*
X295277Y480832D01*
X298575Y479831D01*
X302006Y479493D01*
X305437Y479831D01*
X308735Y480832D01*
X311775Y482457D01*
X314440Y484644D01*
X316627Y487309D01*
X318252Y490349D01*
X319253Y493647D01*
X319591Y497078D01*
X319253Y500509D01*
X318252Y503807D01*
X316627Y506847D01*
X314440Y509512D01*
X311775Y511699D01*
X308735Y513324D01*
X305437Y514325D01*
X302006Y514663D01*
D02*
G37*
G36*
X39878Y509686D02*
X36615Y509256D01*
X33574Y507997D01*
X30963Y505993D01*
X28959Y503382D01*
X27700Y500341D01*
X27270Y497078D01*
X27700Y493815D01*
X28959Y490774D01*
X30963Y488163D01*
X33574Y486159D01*
X36615Y484900D01*
X39878Y484470D01*
X43141Y484900D01*
X46182Y486159D01*
X48793Y488163D01*
X50797Y490774D01*
X51296Y491980D01*
X136971D01*
X138258Y490303D01*
X140243Y488780D01*
X142554Y487822D01*
X145034Y487496D01*
X147514Y487822D01*
X149825Y488780D01*
X151809Y490303D01*
X153097Y491980D01*
X157654D01*
X167368Y482266D01*
Y448561D01*
X166195Y448075D01*
X151687Y462583D01*
X150033Y463688D01*
X148082Y464076D01*
X128205D01*
X126917Y465753D01*
X124933Y467276D01*
X122622Y468233D01*
X120142Y468560D01*
X117662Y468233D01*
X115351Y467276D01*
X113366Y465753D01*
X112079Y464076D01*
X51296D01*
X50797Y465282D01*
X48793Y467893D01*
X46182Y469897D01*
X43141Y471156D01*
X39878Y471586D01*
X36615Y471156D01*
X33574Y469897D01*
X30963Y467893D01*
X28959Y465282D01*
X27700Y462241D01*
X27270Y458978D01*
X27700Y455715D01*
X28959Y452674D01*
X30963Y450063D01*
X33574Y448059D01*
X36615Y446800D01*
X39878Y446370D01*
X43141Y446800D01*
X46182Y448059D01*
X48793Y450063D01*
X50797Y452674D01*
X51296Y453880D01*
X112079D01*
X113366Y452203D01*
X115351Y450680D01*
X117662Y449723D01*
X120142Y449396D01*
X122622Y449723D01*
X124933Y450680D01*
X126917Y452203D01*
X128205Y453880D01*
X145970D01*
X159748Y440102D01*
Y415795D01*
X158575Y415309D01*
X149401Y424483D01*
X147747Y425588D01*
X145796Y425976D01*
X103313D01*
X102025Y427654D01*
X100041Y429176D01*
X97730Y430134D01*
X95250Y430460D01*
X92770Y430134D01*
X90459Y429176D01*
X88475Y427654D01*
X87187Y425976D01*
X51296D01*
X50797Y427182D01*
X48793Y429793D01*
X46182Y431797D01*
X43141Y433056D01*
X39878Y433486D01*
X36615Y433056D01*
X33574Y431797D01*
X30963Y429793D01*
X28959Y427182D01*
X27700Y424141D01*
X27270Y420878D01*
X27700Y417615D01*
X28959Y414574D01*
X30963Y411963D01*
X33574Y409959D01*
X36615Y408700D01*
X39878Y408270D01*
X43141Y408700D01*
X46182Y409959D01*
X48793Y411963D01*
X50797Y414574D01*
X51296Y415780D01*
X87187D01*
X88475Y414103D01*
X90459Y412580D01*
X92770Y411623D01*
X95250Y411296D01*
X97730Y411623D01*
X100041Y412580D01*
X102025Y414103D01*
X103313Y415780D01*
X143684D01*
X152248Y407216D01*
Y403518D01*
X150978Y402891D01*
X149825Y403776D01*
X147514Y404734D01*
X145034Y405060D01*
X142554Y404734D01*
X140243Y403776D01*
X138258Y402253D01*
X136736Y400269D01*
X135779Y397958D01*
X135452Y395478D01*
X135779Y392998D01*
X136736Y390687D01*
X138258Y388703D01*
X139936Y387415D01*
Y287862D01*
X133369Y281295D01*
X132920Y281481D01*
X130048Y281859D01*
X127176Y281481D01*
X124501Y280373D01*
X122203Y278609D01*
X120440Y276311D01*
X119331Y273636D01*
X118953Y270764D01*
X119331Y267892D01*
X120440Y265217D01*
X122203Y262919D01*
X124501Y261155D01*
X127176Y260047D01*
X130048Y259669D01*
X132920Y260047D01*
X135596Y261155D01*
X137893Y262919D01*
X139656Y265217D01*
X140765Y267892D01*
X141143Y270764D01*
X140765Y273636D01*
X140579Y274085D01*
X148639Y282145D01*
X149744Y283799D01*
X150132Y285750D01*
Y387250D01*
X151173Y387968D01*
X152248Y387438D01*
Y298838D01*
X152636Y296887D01*
X153741Y295233D01*
X176410Y272565D01*
X176015Y271611D01*
X175602Y268478D01*
X176015Y265345D01*
X177224Y262426D01*
X179147Y259919D01*
X181654Y257996D01*
X184573Y256787D01*
X186801Y256494D01*
X187372Y256418D01*
Y255138D01*
X186801Y255062D01*
X184573Y254769D01*
X181654Y253560D01*
X179147Y251637D01*
X177224Y249130D01*
X176015Y246211D01*
X175602Y243078D01*
X176015Y239945D01*
X176410Y238992D01*
X150573Y213155D01*
X149468Y211501D01*
X149080Y209550D01*
Y144860D01*
X140890Y136670D01*
X108538D01*
X85362Y159846D01*
Y315007D01*
X86632Y315259D01*
X86952Y314487D01*
X88475Y312502D01*
X90152Y311215D01*
Y171196D01*
X90540Y169245D01*
X91645Y167591D01*
X112981Y146255D01*
X114635Y145150D01*
X116586Y144762D01*
X120253D01*
X120440Y144312D01*
X122203Y142015D01*
X124501Y140252D01*
X127176Y139143D01*
X130048Y138765D01*
X132920Y139143D01*
X135596Y140252D01*
X137893Y142015D01*
X139656Y144312D01*
X140765Y146988D01*
X141143Y149860D01*
X140765Y152732D01*
X139656Y155407D01*
X137893Y157705D01*
X135596Y159468D01*
X132920Y160577D01*
X130048Y160955D01*
X127176Y160577D01*
X124501Y159468D01*
X122203Y157705D01*
X120440Y155407D01*
X120253Y154958D01*
X118698D01*
X100348Y173308D01*
Y221429D01*
X101618Y221555D01*
X101716Y221061D01*
X102821Y219407D01*
X114669Y207560D01*
X116322Y206455D01*
X118273Y206067D01*
X119900D01*
X120440Y204764D01*
X122203Y202467D01*
X124501Y200704D01*
X127176Y199595D01*
X130048Y199217D01*
X132920Y199595D01*
X135596Y200704D01*
X137893Y202467D01*
X139656Y204764D01*
X140765Y207440D01*
X141143Y210312D01*
X140765Y213184D01*
X139656Y215860D01*
X137893Y218157D01*
X135596Y219921D01*
X132920Y221029D01*
X130048Y221407D01*
X127176Y221029D01*
X124501Y219921D01*
X122203Y218157D01*
X121337Y217029D01*
X119714Y216934D01*
X111524Y225124D01*
Y302180D01*
X123747Y314403D01*
X124852Y316057D01*
X125240Y318008D01*
Y349315D01*
X126917Y350602D01*
X128440Y352587D01*
X129397Y354898D01*
X129724Y357378D01*
X129397Y359858D01*
X128440Y362169D01*
X126917Y364154D01*
X124933Y365676D01*
X122622Y366633D01*
X120142Y366960D01*
X117662Y366633D01*
X115351Y365676D01*
X113366Y364154D01*
X111844Y362169D01*
X110886Y359858D01*
X110560Y357378D01*
X110886Y354898D01*
X111844Y352587D01*
X113366Y350602D01*
X115044Y349315D01*
Y320120D01*
X102821Y307897D01*
X101716Y306243D01*
X101618Y305749D01*
X100348Y305875D01*
Y311215D01*
X102025Y312502D01*
X103548Y314487D01*
X104506Y316798D01*
X104832Y319278D01*
X104506Y321758D01*
X103548Y324069D01*
X102025Y326053D01*
X100041Y327576D01*
X97730Y328534D01*
X95250Y328860D01*
X92770Y328534D01*
X90459Y327576D01*
X88475Y326053D01*
X86952Y324069D01*
X86139Y322106D01*
X85883Y322025D01*
X84979Y321974D01*
X84788Y322015D01*
X83869Y323391D01*
X71931Y335329D01*
X70277Y336434D01*
X68326Y336822D01*
X51296D01*
X50797Y338028D01*
X48793Y340639D01*
X46182Y342643D01*
X43141Y343902D01*
X39878Y344332D01*
X36615Y343902D01*
X33574Y342643D01*
X30963Y340639D01*
X28959Y338028D01*
X27700Y334987D01*
X27270Y331724D01*
X27700Y328461D01*
X28959Y325420D01*
X30963Y322809D01*
X33574Y320805D01*
X36615Y319546D01*
X39878Y319116D01*
X43141Y319546D01*
X46182Y320805D01*
X48793Y322809D01*
X50797Y325420D01*
X51296Y326626D01*
X66214D01*
X75166Y317674D01*
Y233986D01*
X73896Y233861D01*
X73544Y235631D01*
X72439Y237285D01*
X63549Y246175D01*
X61895Y247280D01*
X59944Y247668D01*
X51296D01*
X50797Y248874D01*
X48793Y251485D01*
X46182Y253489D01*
X43141Y254748D01*
X39878Y255178D01*
X36615Y254748D01*
X33574Y253489D01*
X30963Y251485D01*
X28959Y248874D01*
X27700Y245833D01*
X27270Y242570D01*
X27700Y239307D01*
X28959Y236266D01*
X30963Y233655D01*
X33574Y231651D01*
X36615Y230392D01*
X39878Y229962D01*
X43141Y230392D01*
X46182Y231651D01*
X48793Y233655D01*
X50797Y236266D01*
X51296Y237472D01*
X57832D01*
X63736Y231568D01*
Y151892D01*
X64124Y149941D01*
X65229Y148287D01*
X96725Y116791D01*
X98379Y115686D01*
X100330Y115298D01*
X146558D01*
X148509Y115686D01*
X150163Y116791D01*
X169213Y135841D01*
X170318Y137495D01*
X170706Y139446D01*
Y193722D01*
X176645Y199662D01*
X177602Y198822D01*
X177224Y198330D01*
X176015Y195411D01*
X175602Y192278D01*
X176015Y189145D01*
X177224Y186226D01*
X179147Y183720D01*
X181654Y181796D01*
X184573Y180587D01*
X187706Y180175D01*
X190839Y180587D01*
X193758Y181796D01*
X196264Y183720D01*
X198188Y186226D01*
X199397Y189145D01*
X199809Y192278D01*
X199397Y195411D01*
X198188Y198330D01*
X196264Y200837D01*
X193758Y202760D01*
X190839Y203969D01*
X188611Y204262D01*
X188040Y204338D01*
Y205618D01*
X188611Y205694D01*
X190839Y205987D01*
X193758Y207196D01*
X196264Y209119D01*
X198188Y211626D01*
X198583Y212580D01*
X212468D01*
X213951Y210648D01*
X215935Y209126D01*
X218246Y208169D01*
X220726Y207842D01*
X223206Y208169D01*
X225517Y209126D01*
X227501Y210648D01*
X228789Y212326D01*
X237372D01*
X255745Y193953D01*
X255587Y192748D01*
X255879Y190529D01*
X256735Y188461D01*
X258098Y186686D01*
X259873Y185323D01*
X261941Y184467D01*
X264160Y184175D01*
X266379Y184467D01*
X268447Y185323D01*
X270222Y186686D01*
X271585Y188461D01*
X272441Y190529D01*
X272733Y192748D01*
X272441Y194967D01*
X271585Y197035D01*
X270222Y198810D01*
X268447Y200173D01*
X266379Y201029D01*
X264160Y201321D01*
X262955Y201163D01*
X243089Y221029D01*
X241435Y222134D01*
X239484Y222522D01*
X228789D01*
X227501Y224199D01*
X225517Y225722D01*
X223206Y226679D01*
X220726Y227006D01*
X218246Y226679D01*
X215935Y225722D01*
X213951Y224199D01*
X212858Y222776D01*
X198583D01*
X198188Y223730D01*
X196264Y226236D01*
X193758Y228160D01*
X190839Y229369D01*
X188611Y229662D01*
X188040Y229738D01*
Y231018D01*
X188611Y231094D01*
X190839Y231387D01*
X193758Y232596D01*
X196264Y234520D01*
X198188Y237026D01*
X199397Y239945D01*
X199531Y240962D01*
X199956Y241047D01*
X201610Y242152D01*
X218630Y259172D01*
X220726Y258896D01*
X223206Y259223D01*
X225517Y260180D01*
X227501Y261702D01*
X229024Y263687D01*
X229981Y265998D01*
X230308Y268478D01*
X229981Y270958D01*
X229024Y273269D01*
X227501Y275254D01*
X225824Y276541D01*
Y285670D01*
X229226Y289072D01*
X258628D01*
X259368Y288108D01*
X261143Y286745D01*
X263211Y285889D01*
X265430Y285597D01*
X267649Y285889D01*
X269717Y286745D01*
X271492Y288108D01*
X272855Y289883D01*
X273711Y291951D01*
X274003Y294170D01*
X273711Y296389D01*
X272855Y298457D01*
X271492Y300232D01*
X269717Y301595D01*
X267649Y302451D01*
X265430Y302743D01*
X263211Y302451D01*
X261143Y301595D01*
X259368Y300232D01*
X258628Y299268D01*
X227114D01*
X225163Y298880D01*
X223509Y297775D01*
X217121Y291387D01*
X216016Y289733D01*
X215628Y287782D01*
Y276541D01*
X213951Y275254D01*
X212428Y273269D01*
X211471Y270958D01*
X211144Y268478D01*
X211420Y266382D01*
X196650Y251611D01*
X196264Y251637D01*
X193758Y253560D01*
X190839Y254769D01*
X188611Y255062D01*
X188040Y255138D01*
Y256418D01*
X188611Y256494D01*
X190839Y256787D01*
X193758Y257996D01*
X196264Y259919D01*
X198188Y262426D01*
X199397Y265345D01*
X199809Y268478D01*
X199397Y271611D01*
X198188Y274530D01*
X196264Y277036D01*
X193758Y278960D01*
X190839Y280169D01*
X188611Y280462D01*
X188040Y280538D01*
Y281818D01*
X188611Y281894D01*
X190839Y282187D01*
X193758Y283396D01*
X196264Y285319D01*
X198188Y287826D01*
X199397Y290745D01*
X199809Y293878D01*
X199397Y297011D01*
X198188Y299930D01*
X196264Y302437D01*
X193758Y304360D01*
X190839Y305569D01*
X188611Y305862D01*
X188040Y305938D01*
Y307218D01*
X188611Y307294D01*
X190839Y307587D01*
X193758Y308796D01*
X196264Y310720D01*
X198188Y313226D01*
X199397Y316145D01*
X199809Y319278D01*
X199397Y322411D01*
X198188Y325330D01*
X196264Y327836D01*
X193758Y329760D01*
X190839Y330969D01*
X188611Y331262D01*
X188040Y331338D01*
Y332618D01*
X188611Y332694D01*
X190839Y332987D01*
X193758Y334196D01*
X196264Y336119D01*
X198188Y338626D01*
X199397Y341545D01*
X199809Y344678D01*
X199397Y347811D01*
X198188Y350730D01*
X196264Y353237D01*
X193758Y355160D01*
X190839Y356369D01*
X188611Y356662D01*
X188040Y356738D01*
Y358018D01*
X188611Y358094D01*
X190839Y358387D01*
X193758Y359596D01*
X196264Y361520D01*
X198188Y364026D01*
X199397Y366945D01*
X199809Y370078D01*
X199397Y373211D01*
X198188Y376130D01*
X196264Y378637D01*
X193758Y380560D01*
X190839Y381769D01*
X188611Y382062D01*
X188040Y382138D01*
Y383418D01*
X188611Y383494D01*
X190839Y383787D01*
X193758Y384996D01*
X196264Y386920D01*
X198188Y389426D01*
X199397Y392345D01*
X199809Y395478D01*
X199397Y398611D01*
X198188Y401530D01*
X196264Y404036D01*
X193758Y405960D01*
X190839Y407169D01*
X188611Y407462D01*
X188040Y407538D01*
Y408818D01*
X188611Y408894D01*
X190839Y409187D01*
X193758Y410396D01*
X196264Y412319D01*
X198188Y414826D01*
X199397Y417745D01*
X199809Y420878D01*
X199397Y424011D01*
X198188Y426930D01*
X196264Y429436D01*
X193758Y431360D01*
X190839Y432569D01*
X188611Y432862D01*
X188040Y432938D01*
Y434218D01*
X188611Y434294D01*
X190839Y434587D01*
X193758Y435796D01*
X196264Y437719D01*
X198188Y440226D01*
X199397Y443145D01*
X199809Y446278D01*
X199397Y449411D01*
X198188Y452330D01*
X196264Y454837D01*
X193758Y456760D01*
X190839Y457969D01*
X188611Y458262D01*
X188040Y458338D01*
Y459618D01*
X188611Y459694D01*
X190839Y459987D01*
X193758Y461196D01*
X196264Y463120D01*
X198188Y465626D01*
X199397Y468545D01*
X199809Y471678D01*
X199397Y474811D01*
X198188Y477730D01*
X196264Y480237D01*
X193758Y482160D01*
X190839Y483369D01*
X188611Y483662D01*
X188040Y483738D01*
Y485018D01*
X188611Y485094D01*
X190839Y485387D01*
X193758Y486596D01*
X196264Y488520D01*
X198188Y491026D01*
X198583Y491980D01*
X203120D01*
X215628Y479472D01*
Y378141D01*
X213951Y376853D01*
X212428Y374869D01*
X211471Y372558D01*
X211144Y370078D01*
X211471Y367598D01*
X212428Y365287D01*
X213951Y363303D01*
X215935Y361780D01*
X217773Y361018D01*
X218843Y359417D01*
X295892Y282368D01*
Y128858D01*
X287956Y120922D01*
X228789D01*
X227501Y122599D01*
X225517Y124122D01*
X223206Y125079D01*
X220726Y125406D01*
X218246Y125079D01*
X215935Y124122D01*
X213951Y122599D01*
X212428Y120615D01*
X211471Y118304D01*
X211144Y115824D01*
X211471Y113344D01*
X212428Y111033D01*
X213951Y109049D01*
X215935Y107526D01*
X218246Y106568D01*
X220726Y106242D01*
X223206Y106568D01*
X225517Y107526D01*
X227501Y109049D01*
X228789Y110726D01*
X290068D01*
X292019Y111114D01*
X293673Y112219D01*
X304595Y123141D01*
X305700Y124795D01*
X306088Y126746D01*
Y284480D01*
X305700Y286431D01*
X304595Y288085D01*
X228969Y363710D01*
X229496Y364980D01*
X343328D01*
X376156Y332152D01*
Y300925D01*
X374478Y299637D01*
X372956Y297653D01*
X371998Y295342D01*
X371672Y292862D01*
X371998Y290382D01*
X372956Y288071D01*
X374478Y286087D01*
X376463Y284564D01*
X378774Y283606D01*
X381254Y283280D01*
X383734Y283606D01*
X386045Y284564D01*
X388030Y286087D01*
X389552Y288071D01*
X390509Y290382D01*
X390836Y292862D01*
X390509Y295342D01*
X389552Y297653D01*
X388030Y299637D01*
X386352Y300925D01*
Y334264D01*
X385964Y336215D01*
X384859Y337869D01*
X349045Y373683D01*
X347391Y374788D01*
X345440Y375176D01*
X228789D01*
X227501Y376853D01*
X225824Y378141D01*
Y481584D01*
X225436Y483535D01*
X224331Y485189D01*
X208837Y500683D01*
X207183Y501788D01*
X205232Y502176D01*
X198583D01*
X198188Y503130D01*
X196264Y505636D01*
X193758Y507560D01*
X190839Y508769D01*
X187706Y509182D01*
X184573Y508769D01*
X181654Y507560D01*
X179147Y505636D01*
X177224Y503130D01*
X176015Y500211D01*
X175602Y497078D01*
X176015Y493945D01*
X177224Y491026D01*
X179147Y488520D01*
X181654Y486596D01*
X184573Y485387D01*
X186801Y485094D01*
X187372Y485018D01*
Y483738D01*
X186801Y483662D01*
X184573Y483369D01*
X181654Y482160D01*
X179147Y480237D01*
X178767Y479740D01*
X177564Y480148D01*
Y484378D01*
X177176Y486329D01*
X176071Y487983D01*
X163371Y500683D01*
X161717Y501788D01*
X159766Y502176D01*
X153097D01*
X151809Y503853D01*
X149825Y505376D01*
X147514Y506334D01*
X145034Y506660D01*
X142554Y506334D01*
X140243Y505376D01*
X138258Y503853D01*
X136971Y502176D01*
X51296D01*
X50797Y503382D01*
X48793Y505993D01*
X46182Y507997D01*
X43141Y509256D01*
X39878Y509686D01*
D02*
G37*
G36*
X483870Y366960D02*
X481390Y366633D01*
X479079Y365676D01*
X477094Y364154D01*
X475572Y362169D01*
X474614Y359858D01*
X474288Y357378D01*
X474614Y354898D01*
X475572Y352587D01*
X477094Y350602D01*
X478772Y349315D01*
Y323342D01*
X479160Y321391D01*
X480265Y319737D01*
X493504Y306498D01*
Y217758D01*
X492172Y216426D01*
X485216D01*
X485009Y216925D01*
X483262Y219202D01*
X480985Y220949D01*
X478334Y222047D01*
X475488Y222422D01*
X472643Y222047D01*
X469991Y220949D01*
X467714Y219202D01*
X465967Y216925D01*
X464869Y214273D01*
X464494Y211428D01*
Y211228D01*
X464869Y208382D01*
X465967Y205731D01*
X467714Y203454D01*
X469991Y201707D01*
X472643Y200609D01*
X475488Y200234D01*
X478334Y200609D01*
X480985Y201707D01*
X483262Y203454D01*
X485009Y205731D01*
X485216Y206230D01*
X494284D01*
X496235Y206618D01*
X497889Y207723D01*
X502207Y212041D01*
X502394Y212321D01*
X503664Y211936D01*
Y168228D01*
X491664Y156228D01*
X485216D01*
X485009Y156727D01*
X483262Y159004D01*
X480985Y160751D01*
X478334Y161849D01*
X475488Y162224D01*
X472643Y161849D01*
X469991Y160751D01*
X467714Y159004D01*
X465967Y156727D01*
X464869Y154075D01*
X464494Y151230D01*
Y151030D01*
X464869Y148184D01*
X465967Y145533D01*
X467714Y143256D01*
X469991Y141509D01*
X472643Y140411D01*
X475488Y140036D01*
X478334Y140411D01*
X480985Y141509D01*
X483262Y143256D01*
X485009Y145533D01*
X485216Y146032D01*
X493776D01*
X495727Y146420D01*
X497381Y147525D01*
X512367Y162511D01*
X513472Y164165D01*
X513860Y166116D01*
Y311215D01*
X515537Y312502D01*
X517060Y314487D01*
X518018Y316798D01*
X518344Y319278D01*
X518018Y321758D01*
X517060Y324069D01*
X515537Y326053D01*
X513553Y327576D01*
X511242Y328534D01*
X508762Y328860D01*
X506282Y328534D01*
X503971Y327576D01*
X501987Y326053D01*
X500464Y324069D01*
X499506Y321758D01*
X499180Y319278D01*
X499506Y316798D01*
X499568Y316650D01*
X498491Y315930D01*
X488968Y325454D01*
Y349315D01*
X490645Y350602D01*
X492168Y352587D01*
X493125Y354898D01*
X493452Y357378D01*
X493125Y359858D01*
X492168Y362169D01*
X490645Y364154D01*
X488661Y365676D01*
X486350Y366633D01*
X483870Y366960D01*
D02*
G37*
G36*
X187706Y153581D02*
X184573Y153169D01*
X181654Y151960D01*
X179147Y150036D01*
X177224Y147530D01*
X176015Y144611D01*
X175602Y141478D01*
X176015Y138345D01*
X176410Y137392D01*
X122094Y83076D01*
X51296D01*
X50797Y84282D01*
X48793Y86893D01*
X46182Y88897D01*
X43141Y90156D01*
X39878Y90586D01*
X36615Y90156D01*
X33574Y88897D01*
X30963Y86893D01*
X28959Y84282D01*
X27700Y81241D01*
X27450Y79344D01*
X26180Y79427D01*
Y108886D01*
X27433Y110140D01*
X28931Y109842D01*
X28959Y109774D01*
X30963Y107163D01*
X33574Y105159D01*
X36615Y103900D01*
X39878Y103470D01*
X43141Y103900D01*
X46182Y105159D01*
X48793Y107163D01*
X50797Y109774D01*
X52056Y112815D01*
X52486Y116078D01*
X52056Y119341D01*
X50797Y122382D01*
X48793Y124993D01*
X46182Y126997D01*
X43141Y128256D01*
X39878Y128686D01*
X36615Y128256D01*
X33574Y126997D01*
X30963Y124993D01*
X28959Y122382D01*
X28460Y121176D01*
X26162D01*
X24211Y120788D01*
X22557Y119683D01*
X17477Y114603D01*
X16372Y112949D01*
X15984Y110998D01*
Y67818D01*
X16372Y65867D01*
X17477Y64213D01*
X25605Y56085D01*
X27259Y54980D01*
X29210Y54592D01*
X125142D01*
X143461Y36273D01*
X145115Y35168D01*
X147066Y34780D01*
X176829D01*
X177224Y33826D01*
X179147Y31319D01*
X181654Y29396D01*
X184573Y28187D01*
X187706Y27775D01*
X190839Y28187D01*
X193758Y29396D01*
X196264Y31319D01*
X198188Y33826D01*
X199397Y36745D01*
X199809Y39878D01*
X199397Y43011D01*
X198188Y45930D01*
X196264Y48436D01*
X193758Y50360D01*
X190839Y51569D01*
X188611Y51862D01*
X188040Y51938D01*
Y53218D01*
X188611Y53294D01*
X190839Y53587D01*
X193758Y54796D01*
X196264Y56719D01*
X198188Y59226D01*
X199397Y62145D01*
X199809Y65278D01*
X199397Y68411D01*
X198188Y71330D01*
X196264Y73836D01*
X193758Y75760D01*
X190839Y76969D01*
X188611Y77262D01*
X188040Y77338D01*
Y78618D01*
X188611Y78694D01*
X190839Y78987D01*
X193758Y80196D01*
X196264Y82120D01*
X198188Y84626D01*
X199397Y87545D01*
X199809Y90678D01*
X199397Y93811D01*
X198188Y96730D01*
X196264Y99236D01*
X193758Y101160D01*
X190839Y102369D01*
X188611Y102662D01*
X188040Y102738D01*
Y104018D01*
X188611Y104094D01*
X190839Y104387D01*
X193758Y105596D01*
X196264Y107520D01*
X198188Y110026D01*
X199397Y112945D01*
X199809Y116078D01*
X199397Y119211D01*
X198188Y122130D01*
X196264Y124636D01*
X193758Y126560D01*
X190839Y127769D01*
X188611Y128062D01*
X188040Y128138D01*
Y129418D01*
X188611Y129494D01*
X190839Y129787D01*
X193758Y130996D01*
X196264Y132920D01*
X198188Y135426D01*
X199397Y138345D01*
X199809Y141478D01*
X199397Y144611D01*
X198188Y147530D01*
X196264Y150036D01*
X193758Y151960D01*
X190839Y153169D01*
X187706Y153581D01*
D02*
G37*
G36*
X302006Y57463D02*
X298575Y57125D01*
X295277Y56124D01*
X292236Y54499D01*
X289572Y52312D01*
X287385Y49647D01*
X285760Y46607D01*
X284759Y43309D01*
X284421Y39878D01*
X284759Y36447D01*
X285760Y33149D01*
X287385Y30108D01*
X289572Y27444D01*
X292236Y25257D01*
X295277Y23632D01*
X298575Y22631D01*
X302006Y22293D01*
X305437Y22631D01*
X308735Y23632D01*
X311775Y25257D01*
X314440Y27444D01*
X316627Y30108D01*
X318252Y33149D01*
X319253Y36447D01*
X319591Y39878D01*
X319253Y43309D01*
X318252Y46607D01*
X316627Y49647D01*
X314440Y52312D01*
X311775Y54499D01*
X308735Y56124D01*
X305437Y57125D01*
X302006Y57463D01*
D02*
G37*
%LPD*%
G36*
X176410Y348764D02*
X176015Y347811D01*
X175602Y344678D01*
X176015Y341545D01*
X177224Y338626D01*
X179147Y336119D01*
X181654Y334196D01*
X184573Y332987D01*
X186801Y332694D01*
X187372Y332618D01*
Y331338D01*
X186801Y331262D01*
X184573Y330969D01*
X181654Y329760D01*
X179147Y327836D01*
X177224Y325330D01*
X176015Y322411D01*
X175602Y319278D01*
X176015Y316145D01*
X177125Y313464D01*
X176049Y312745D01*
X169944Y318850D01*
Y353571D01*
X171117Y354057D01*
X176410Y348764D01*
D02*
G37*
G36*
X177125Y223492D02*
X176015Y220811D01*
X175602Y217678D01*
X176015Y214545D01*
X176336Y213771D01*
X162003Y199439D01*
X160898Y197785D01*
X160546Y196015D01*
X159276Y196140D01*
Y207438D01*
X176049Y224211D01*
X177125Y223492D01*
D02*
G37*
G36*
Y121892D02*
X176015Y119211D01*
X175602Y116078D01*
X176015Y112945D01*
X177224Y110026D01*
X179147Y107520D01*
X181654Y105596D01*
X184573Y104387D01*
X186801Y104094D01*
X187372Y104018D01*
Y102738D01*
X186801Y102662D01*
X184573Y102369D01*
X181654Y101160D01*
X179147Y99236D01*
X177224Y96730D01*
X176015Y93811D01*
X175602Y90678D01*
X176015Y87545D01*
X177224Y84626D01*
X179147Y82120D01*
X181654Y80196D01*
X184573Y78987D01*
X186801Y78694D01*
X187372Y78618D01*
Y77338D01*
X186801Y77262D01*
X184573Y76969D01*
X181654Y75760D01*
X179147Y73836D01*
X177224Y71330D01*
X176015Y68411D01*
X175602Y65278D01*
X176015Y62145D01*
X177224Y59226D01*
X179147Y56719D01*
X181654Y54796D01*
X184573Y53587D01*
X186801Y53294D01*
X187372Y53218D01*
Y51938D01*
X186801Y51862D01*
X184573Y51569D01*
X181654Y50360D01*
X179147Y48436D01*
X177224Y45930D01*
X176829Y44976D01*
X149178D01*
X130859Y63295D01*
X129205Y64400D01*
X127254Y64788D01*
X44017D01*
X43765Y66058D01*
X46182Y67059D01*
X48793Y69063D01*
X50797Y71674D01*
X51296Y72880D01*
X124206D01*
X126157Y73268D01*
X127811Y74373D01*
X176049Y122611D01*
X177125Y121892D01*
D02*
G37*
D10*
X300990Y126746D02*
Y284480D01*
X290068Y115824D02*
X300990Y126746D01*
X220726Y115824D02*
X290068D01*
X208726Y145858D02*
X211836Y142748D01*
X187706Y166878D02*
X208726Y145858D01*
Y26862D02*
Y145858D01*
X211836Y142748D02*
X264160D01*
X239484Y217424D02*
X264160Y192748D01*
X220726Y217424D02*
X239484D01*
X220472Y217678D02*
X220726Y217424D01*
X187706Y217678D02*
X220472D01*
X198005Y245757D02*
X220726Y268478D01*
X190385Y245757D02*
X198005D01*
X187706Y243078D02*
X190385Y245757D01*
X164846Y316738D02*
Y442214D01*
Y316738D02*
X187706Y293878D01*
X157346Y298838D02*
Y409328D01*
Y298838D02*
X187706Y268478D01*
X154178Y142748D02*
Y209550D01*
X187706Y243078D01*
X165608Y139446D02*
Y195834D01*
X187452Y217678D01*
X187706D01*
X528574Y382778D02*
X564134D01*
X481838D02*
X528574D01*
Y78740D02*
Y382778D01*
X491998Y42164D02*
X528574Y78740D01*
X477266Y42164D02*
X491998D01*
X540512Y308102D02*
X564134Y331724D01*
X540512Y57912D02*
Y308102D01*
X502920Y20320D02*
X540512Y57912D01*
X416306Y243078D02*
X441960Y217424D01*
Y103124D02*
Y217424D01*
Y103124D02*
X452120Y92964D01*
X477266D01*
X446786Y67564D02*
X477266D01*
X432816Y81534D02*
X446786Y67564D01*
X432816Y81534D02*
Y209296D01*
X427113Y214999D02*
X432816Y209296D01*
X418985Y214999D02*
X427113D01*
X416306Y217678D02*
X418985Y214999D01*
X400304Y20320D02*
X502920D01*
X381254Y39370D02*
X400304Y20320D01*
X381254Y39370D02*
Y191262D01*
X586486Y367792D02*
Y503682D01*
X575564Y514604D02*
X586486Y503682D01*
X433832Y514604D02*
X575564D01*
X416306Y497078D02*
X433832Y514604D01*
X386588Y467360D02*
X416306Y497078D01*
X386588Y370078D02*
Y467360D01*
Y370078D02*
X407126Y349540D01*
X407656D01*
X412518Y344678D01*
X416306D01*
X564134Y382778D02*
X567004Y379908D01*
X574370D01*
X586486Y367792D01*
Y315976D02*
Y367792D01*
X564134Y293624D02*
X586486Y315976D01*
X469392Y370332D02*
X481838Y382778D01*
X469392Y318008D02*
Y370332D01*
Y318008D02*
X475488Y311912D01*
Y296926D02*
Y311912D01*
Y211328D02*
X494284D01*
X498602Y215646D01*
Y308610D01*
X483870Y323342D02*
X498602Y308610D01*
X483870Y323342D02*
Y357378D01*
X475488Y151130D02*
X493776D01*
X508762Y166116D01*
Y319278D01*
X473130Y273884D02*
X475488Y271526D01*
X466018Y273884D02*
X473130D01*
X458978Y280924D02*
X466018Y273884D01*
X458978Y280924D02*
Y395478D01*
X446978Y324550D02*
Y410910D01*
X416306Y293878D02*
X446978Y324550D01*
X508762Y420878D02*
X564134D01*
X483870Y458978D02*
X564134D01*
X458978Y497078D02*
X564134D01*
X456946Y420878D02*
X508762D01*
X446978Y410910D02*
X456946Y420878D01*
X430904Y479926D02*
X448056Y497078D01*
X430904Y384676D02*
Y479926D01*
X416306Y370078D02*
X430904Y384676D01*
X438404Y443738D02*
X453644Y458978D01*
X438404Y340106D02*
Y443738D01*
X417576Y319278D02*
X438404Y340106D01*
X453644Y458978D02*
X483870D01*
X416306Y319278D02*
X417576D01*
X448056Y497078D02*
X458978D01*
X220726Y370078D02*
X222448Y368356D01*
Y363022D02*
Y368356D01*
Y363022D02*
X300990Y284480D01*
X265430Y344170D02*
X335973Y273627D01*
Y268255D02*
Y273627D01*
Y268255D02*
X337312Y266916D01*
X381254Y191262D02*
Y212344D01*
X376682Y216916D02*
X381254Y212344D01*
X337312Y216916D02*
X376682D01*
X415290Y191262D02*
X416306Y192278D01*
X381254Y191262D02*
X415290D01*
X220726Y370078D02*
X345440D01*
X381254Y334264D01*
Y292862D02*
Y334264D01*
X220726Y370078D02*
Y481584D01*
X205232Y497078D02*
X220726Y481584D01*
X187706Y497078D02*
X205232D01*
X200152Y18288D02*
X208726Y26862D01*
X21082Y184912D02*
Y220472D01*
X8890Y172720D02*
X21082Y184912D01*
X8890Y52832D02*
Y172720D01*
Y52832D02*
X21844Y39878D01*
X39878D01*
X76962D01*
X98552Y18288D01*
X200152D01*
X21082Y110998D02*
X26162Y116078D01*
X21082Y67818D02*
Y110998D01*
Y67818D02*
X29210Y59690D01*
X127254D01*
X26162Y116078D02*
X39878D01*
X147066Y39878D02*
X187706D01*
X127254Y59690D02*
X147066Y39878D01*
X39878Y77978D02*
X124206D01*
X187706Y141478D01*
X21082Y379849D02*
X24011Y382778D01*
X39878D01*
X21082Y274828D02*
Y379849D01*
Y274828D02*
X39878Y293624D01*
X21082Y220472D02*
Y274828D01*
Y220472D02*
X29584Y211970D01*
X32378D01*
X39878Y204470D01*
X220726Y268478D02*
Y287782D01*
X227114Y294170D01*
X265430D01*
X39878Y242570D02*
X59944D01*
X68834Y233680D01*
Y151892D02*
Y233680D01*
Y151892D02*
X100330Y120396D01*
X146558D01*
X165608Y139446D01*
X39878Y331724D02*
X68326D01*
X80264Y319786D01*
Y157734D02*
Y319786D01*
Y157734D02*
X106426Y131572D01*
X143002D01*
X154178Y142748D01*
X106426Y304292D02*
X120142Y318008D01*
X106426Y223012D02*
Y304292D01*
Y223012D02*
X118273Y211165D01*
X95250Y171196D02*
Y319278D01*
Y171196D02*
X116586Y149860D01*
X130048Y235712D02*
X145796Y219964D01*
Y187198D02*
Y219964D01*
X138267Y179669D02*
X145796Y187198D01*
X137704Y179669D02*
X138267D01*
X133295Y175260D02*
X137704Y179669D01*
X130048Y175260D02*
X133295D01*
X127752Y293868D02*
X130048Y296164D01*
X121402Y293868D02*
X127752D01*
X115958Y288424D02*
X121402Y293868D01*
X115958Y249802D02*
Y288424D01*
Y249802D02*
X130048Y235712D01*
X39878Y382778D02*
X121920D01*
X133096Y371602D01*
Y316738D02*
Y371602D01*
X130048Y313690D02*
X133096Y316738D01*
X130048Y296164D02*
Y313690D01*
Y270764D02*
X145034Y285750D01*
Y395478D01*
X120142Y318008D02*
Y357378D01*
X116586Y149860D02*
X130048D01*
X129195Y211165D02*
X130048Y210312D01*
X118273Y211165D02*
X129195D01*
X39878Y420878D02*
X95250D01*
X145796D01*
X157346Y409328D01*
X148082Y458978D02*
X164846Y442214D01*
X172466Y359918D02*
X187706Y344678D01*
X172466Y359918D02*
Y484378D01*
X159766Y497078D02*
X172466Y484378D01*
X39878Y458978D02*
X120142D01*
X148082D01*
X39878Y497078D02*
X145034D01*
X159766D01*
D11*
X265430Y294170D02*
D03*
Y344170D02*
D03*
X337312Y266916D02*
D03*
Y216916D02*
D03*
X264160Y192748D02*
D03*
Y142748D02*
D03*
D12*
X477266Y92964D02*
D03*
D13*
Y67564D02*
D03*
Y42164D02*
D03*
D14*
X39878Y39878D02*
D03*
Y77978D02*
D03*
Y116078D02*
D03*
Y242570D02*
D03*
X564134Y293624D02*
D03*
X39878Y331724D02*
D03*
Y420878D02*
D03*
Y458978D02*
D03*
Y497078D02*
D03*
X564134Y458978D02*
D03*
Y420878D02*
D03*
Y382778D02*
D03*
D15*
X187706Y39878D02*
D03*
Y65278D02*
D03*
Y90678D02*
D03*
Y116078D02*
D03*
Y141478D02*
D03*
Y166878D02*
D03*
Y192278D02*
D03*
Y217678D02*
D03*
Y243078D02*
D03*
Y268478D02*
D03*
Y293878D02*
D03*
Y319278D02*
D03*
Y344678D02*
D03*
Y370078D02*
D03*
Y395478D02*
D03*
Y420878D02*
D03*
Y446278D02*
D03*
Y471678D02*
D03*
Y497078D02*
D03*
X416306D02*
D03*
Y471678D02*
D03*
Y446278D02*
D03*
Y420878D02*
D03*
Y395478D02*
D03*
Y370078D02*
D03*
Y344678D02*
D03*
Y319278D02*
D03*
Y293878D02*
D03*
Y268478D02*
D03*
Y243078D02*
D03*
Y217678D02*
D03*
Y192278D02*
D03*
Y166878D02*
D03*
Y141478D02*
D03*
Y116078D02*
D03*
Y90678D02*
D03*
Y65278D02*
D03*
Y39878D02*
D03*
X302006Y497078D02*
D03*
Y39878D02*
D03*
D16*
X39878Y204470D02*
D03*
X564134Y331724D02*
D03*
X39878Y293624D02*
D03*
Y382778D02*
D03*
X564134Y497078D02*
D03*
D17*
X220726Y115824D02*
D03*
Y217424D02*
D03*
X381254Y191262D02*
D03*
Y292862D02*
D03*
X220726Y370078D02*
D03*
Y268478D02*
D03*
X95250Y420878D02*
D03*
Y319278D02*
D03*
X508762Y420878D02*
D03*
Y319278D02*
D03*
X120142Y458978D02*
D03*
Y357378D02*
D03*
X483870Y458978D02*
D03*
Y357378D02*
D03*
X145034Y497078D02*
D03*
Y395478D02*
D03*
X458978Y497078D02*
D03*
Y395478D02*
D03*
D18*
X130048Y149860D02*
D03*
Y175260D02*
D03*
Y210312D02*
D03*
Y235712D02*
D03*
Y270764D02*
D03*
Y296164D02*
D03*
D19*
X475488Y151130D02*
D03*
Y176530D02*
D03*
Y211328D02*
D03*
Y236728D02*
D03*
Y271526D02*
D03*
Y296926D02*
D03*
M02*
