M48
;Layer_Color=9474304
;FILE_FORMAT=4:4
METRIC,LZ
;TYPE=PLATED
T1F00S00C0.8000
T2F00S00C0.9000
T3F00S00C1.6000
T4F00S00C3.0000
%
T01
X00246888Y00201676
Y00303276
X00569468Y00328676
Y00227076
Y00379476
Y00481076
T02
X00279908Y00201676
Y00227076
Y00252476
Y00277876
Y00303276
Y00328676
Y00354076
X00533908
Y00328676
Y00303276
Y00277876
Y00252476
Y00227076
Y00201676
Y00379476
Y00404876
Y00430276
Y00455676
Y00481076
Y00506476
Y00531876
Y00557276
Y00582676
Y00608076
Y00633476
Y00658876
X00279908
Y00633476
Y00608076
Y00582676
Y00557276
Y00531876
Y00506476
Y00481076
Y00455676
Y00430276
Y00404876
Y00379476
X00592328Y00557276
Y00582676
Y00608076
T03
X00734568Y00100076
Y00150876
Y00201676
Y00252476
X00736658Y00327476
X00079908
Y00252476
Y00201676
Y00150876
Y00100076
Y00378276
X00736658
Y00453276
Y00504076
Y00583946
Y00634746
Y00685546
T04
X00734568Y00030076
X00079908
Y00755546
X00736658
M30
