M48
;Layer_Color=9474304
;FILE_FORMAT=4:4
METRIC,LZ
;TYPE=PLATED
T1F00S00C0.7000
T2F00S00C0.8500
T3F00S00C0.9000
T4F00S00C1.0000
T5F00S00C3.0000
%
T01
X0026416Y00142748
Y00192748
X00337312Y00216916
Y00266916
X0026543Y0029417
Y0034417
T02
X00220726Y00115824
Y00217424
X00381254Y00191262
Y00292862
X00458978Y00395478
Y00497078
X00145034
X00120142Y00458978
X0009525Y00420878
X00145034Y00395478
X00120142Y00357378
X0009525Y00319278
X00220726Y00370078
Y00268478
X00508762Y00319278
X0048387Y00357378
X00508762Y00420878
X0048387Y00458978
T03
X00477266Y00042164
Y00067564
Y00092964
X00475488Y0015113
Y0017653
Y00211328
X00416306Y00217678
Y00192278
Y00166878
Y00141478
Y00116078
Y00090678
Y00065278
Y00039878
X00187706
Y00065278
Y00090678
Y00116078
Y00141478
Y00166878
Y00192278
Y00217678
X00130048Y00210312
Y0017526
Y0014986
Y00235712
Y00270764
Y00296164
X00187706Y00293878
Y00268478
Y00243078
Y00319278
Y00344678
Y00370078
Y00395478
Y00420878
Y00446278
Y00471678
Y00497078
X00416306
Y00471678
Y00446278
Y00420878
Y00395478
Y00370078
Y00344678
Y00319278
Y00293878
Y00268478
Y00243078
X00475488Y00236728
Y00271526
Y00296926
T04
X00039878Y00039878
Y00077978
Y00116078
Y0020447
Y0024257
Y00293624
Y00331724
Y00382778
Y00420878
Y00458978
Y00497078
X00564134
Y00458978
Y00420878
Y00382778
Y00331724
Y00293624
T05
X00302006Y00039878
Y00497078
M30
