G04*
G04 #@! TF.GenerationSoftware,Altium Limited,Altium Designer,19.0.5 (141)*
G04*
G04 Layer_Physical_Order=2*
G04 Layer_Color=16711680*
%FSLAX44Y44*%
%MOMM*%
G71*
G01*
G75*
%ADD10C,1.0000*%
%ADD11C,1.9000*%
%ADD12R,2.6000X2.6000*%
%ADD13C,2.6000*%
%ADD14R,1.9000X1.9000*%
%ADD15C,1.7000*%
G36*
X1409156Y428788D02*
X603286D01*
Y1205702D01*
X1409156D01*
Y428788D01*
D02*
G37*
%LPC*%
G36*
X1335590Y1198067D02*
X1332061Y1197720D01*
X1328668Y1196690D01*
X1325541Y1195019D01*
X1322800Y1192769D01*
X1320551Y1190029D01*
X1318880Y1186902D01*
X1317850Y1183509D01*
X1317503Y1179980D01*
X1317850Y1176451D01*
X1318880Y1173058D01*
X1320551Y1169931D01*
X1322800Y1167190D01*
X1325541Y1164941D01*
X1328668Y1163270D01*
X1332061Y1162241D01*
X1335590Y1161893D01*
X1339119Y1162241D01*
X1342512Y1163270D01*
X1345639Y1164941D01*
X1348380Y1167190D01*
X1350629Y1169931D01*
X1352300Y1173058D01*
X1353329Y1176451D01*
X1353677Y1179980D01*
X1353329Y1183509D01*
X1352300Y1186902D01*
X1350629Y1190029D01*
X1348380Y1192769D01*
X1345639Y1195019D01*
X1342512Y1196690D01*
X1339119Y1197720D01*
X1335590Y1198067D01*
D02*
G37*
G36*
X678840D02*
X675311Y1197720D01*
X671918Y1196690D01*
X668791Y1195019D01*
X666050Y1192769D01*
X663801Y1190029D01*
X662130Y1186902D01*
X661100Y1183509D01*
X660753Y1179980D01*
X661100Y1176451D01*
X662130Y1173058D01*
X663801Y1169931D01*
X666050Y1167190D01*
X668791Y1164941D01*
X671918Y1163270D01*
X675311Y1162241D01*
X678840Y1161893D01*
X682369Y1162241D01*
X685762Y1163270D01*
X688889Y1164941D01*
X691629Y1167190D01*
X693879Y1169931D01*
X695550Y1173058D01*
X696580Y1176451D01*
X696927Y1179980D01*
X696580Y1183509D01*
X695550Y1186902D01*
X693879Y1190029D01*
X691629Y1192769D01*
X688889Y1195019D01*
X685762Y1196690D01*
X682369Y1197720D01*
X678840Y1198067D01*
D02*
G37*
G36*
X1132840Y1095918D02*
X1129577Y1095488D01*
X1126536Y1094229D01*
X1123925Y1092225D01*
X1121921Y1089614D01*
X1120662Y1086573D01*
X1120232Y1083310D01*
X1120662Y1080047D01*
X1121921Y1077006D01*
X1123925Y1074395D01*
X1126536Y1072391D01*
X1129263Y1071262D01*
X1129263Y1071260D01*
Y1069960D01*
X1129263Y1069958D01*
X1126536Y1068829D01*
X1123925Y1066825D01*
X1121921Y1064214D01*
X1120662Y1061173D01*
X1120232Y1057910D01*
X1120662Y1054647D01*
X1121921Y1051606D01*
X1123925Y1048995D01*
X1126536Y1046991D01*
X1129263Y1045862D01*
X1129263Y1045860D01*
Y1044560D01*
X1129263Y1044558D01*
X1126536Y1043429D01*
X1123925Y1041425D01*
X1121921Y1038814D01*
X1120662Y1035773D01*
X1120232Y1032510D01*
X1120662Y1029247D01*
X1121921Y1026206D01*
X1123925Y1023595D01*
X1126536Y1021591D01*
X1129263Y1020462D01*
X1129263Y1020460D01*
Y1019160D01*
X1129263Y1019158D01*
X1126536Y1018029D01*
X1123925Y1016025D01*
X1121921Y1013414D01*
X1120662Y1010373D01*
X1120232Y1007110D01*
X1120662Y1003847D01*
X1121921Y1000806D01*
X1123925Y998195D01*
X1126536Y996191D01*
X1129263Y995062D01*
X1129263Y995060D01*
Y993760D01*
X1129263Y993758D01*
X1126536Y992629D01*
X1123925Y990625D01*
X1121921Y988014D01*
X1120662Y984973D01*
X1120232Y981710D01*
X1120662Y978447D01*
X1121921Y975406D01*
X1123925Y972795D01*
X1126536Y970791D01*
X1129577Y969532D01*
X1132840Y969102D01*
X1136103Y969532D01*
X1139144Y970791D01*
X1141755Y972795D01*
X1143759Y975406D01*
X1145018Y978447D01*
X1145448Y981710D01*
X1145018Y984973D01*
X1143759Y988014D01*
X1141755Y990625D01*
X1139144Y992629D01*
X1136417Y993758D01*
X1136417Y993760D01*
Y995060D01*
X1136417Y995062D01*
X1139144Y996191D01*
X1141755Y998195D01*
X1142404Y999041D01*
X1181696D01*
X1182345Y998195D01*
X1184956Y996191D01*
X1187997Y994932D01*
X1191260Y994502D01*
X1194523Y994932D01*
X1197564Y996191D01*
X1200175Y998195D01*
X1202179Y1000806D01*
X1203438Y1003847D01*
X1203868Y1007110D01*
X1203438Y1010373D01*
X1202179Y1013414D01*
X1200175Y1016025D01*
X1197564Y1018029D01*
X1195847Y1018740D01*
X1196099Y1020010D01*
X1203760D01*
Y1045010D01*
X1178760D01*
Y1040579D01*
X1142404D01*
X1141755Y1041425D01*
X1139144Y1043429D01*
X1136417Y1044558D01*
X1136417Y1044560D01*
Y1045860D01*
X1136417Y1045862D01*
X1139144Y1046991D01*
X1141755Y1048995D01*
X1143759Y1051606D01*
X1145018Y1054647D01*
X1145448Y1057910D01*
X1145018Y1061173D01*
X1143759Y1064214D01*
X1141755Y1066825D01*
X1139144Y1068829D01*
X1136417Y1069958D01*
X1136417Y1069960D01*
Y1071260D01*
X1136417Y1071262D01*
X1139144Y1072391D01*
X1141755Y1074395D01*
X1142404Y1075241D01*
X1328744D01*
X1328819Y1075101D01*
X1328315Y1073434D01*
X1326658Y1072548D01*
X1324221Y1070548D01*
X1322222Y1068112D01*
X1321761Y1067249D01*
X1295400D01*
X1293312Y1066974D01*
X1291366Y1066168D01*
X1289694Y1064886D01*
X1263024Y1038216D01*
X1261742Y1036544D01*
X1260936Y1034598D01*
X1260661Y1032510D01*
Y985052D01*
X1214588Y938979D01*
X1142404D01*
X1141755Y939825D01*
X1139144Y941829D01*
X1136103Y943088D01*
X1132840Y943518D01*
X1129577Y943088D01*
X1126536Y941829D01*
X1123925Y939825D01*
X1121921Y937214D01*
X1120662Y934173D01*
X1120232Y930910D01*
X1120662Y927647D01*
X1121921Y924606D01*
X1123925Y921995D01*
X1126536Y919991D01*
X1129263Y918862D01*
X1129263Y918860D01*
Y917560D01*
X1129263Y917558D01*
X1126536Y916429D01*
X1123925Y914425D01*
X1121921Y911814D01*
X1120662Y908773D01*
X1120232Y905510D01*
X1120662Y902247D01*
X1121921Y899206D01*
X1123925Y896595D01*
X1126536Y894591D01*
X1129263Y893462D01*
X1129263Y893460D01*
Y892160D01*
X1129263Y892158D01*
X1126536Y891029D01*
X1123925Y889025D01*
X1121921Y886414D01*
X1120662Y883373D01*
X1120232Y880110D01*
X1120662Y876847D01*
X1121921Y873806D01*
X1123925Y871195D01*
X1126536Y869191D01*
X1129263Y868062D01*
X1129263Y868060D01*
Y866760D01*
X1129263Y866758D01*
X1126536Y865629D01*
X1123925Y863625D01*
X1121921Y861014D01*
X1120662Y857973D01*
X1120232Y854710D01*
X1120662Y851447D01*
X1121921Y848406D01*
X1123925Y845795D01*
X1126536Y843791D01*
X1129263Y842662D01*
X1129263Y842660D01*
Y841360D01*
X1129263Y841358D01*
X1126536Y840229D01*
X1123925Y838225D01*
X1121921Y835614D01*
X1120662Y832573D01*
X1120232Y829310D01*
X1120662Y826047D01*
X1121921Y823006D01*
X1123925Y820395D01*
X1126536Y818391D01*
X1129263Y817262D01*
X1129263Y817260D01*
Y815960D01*
X1129263Y815958D01*
X1126536Y814829D01*
X1123925Y812825D01*
X1121921Y810214D01*
X1120662Y807173D01*
X1120232Y803910D01*
X1120662Y800647D01*
X1121921Y797606D01*
X1123925Y794995D01*
X1126536Y792991D01*
X1129263Y791862D01*
X1129263Y791860D01*
Y790560D01*
X1129263Y790558D01*
X1126536Y789429D01*
X1123925Y787425D01*
X1121921Y784814D01*
X1120662Y781773D01*
X1120232Y778510D01*
X1120662Y775247D01*
X1121921Y772206D01*
X1123925Y769595D01*
X1126536Y767591D01*
X1129263Y766462D01*
X1129263Y766460D01*
Y765160D01*
X1129263Y765158D01*
X1126536Y764029D01*
X1123925Y762025D01*
X1121921Y759414D01*
X1120662Y756373D01*
X1120232Y753110D01*
X1120662Y749847D01*
X1121921Y746806D01*
X1123925Y744195D01*
X1126536Y742191D01*
X1129263Y741062D01*
X1129263Y741060D01*
Y739760D01*
X1129263Y739758D01*
X1126536Y738629D01*
X1123925Y736625D01*
X1121921Y734014D01*
X1120662Y730973D01*
X1120232Y727710D01*
X1120662Y724447D01*
X1121921Y721406D01*
X1123925Y718795D01*
X1126536Y716791D01*
X1129263Y715662D01*
X1129263Y715660D01*
Y714360D01*
X1129263Y714358D01*
X1126536Y713229D01*
X1123925Y711225D01*
X1121921Y708614D01*
X1120662Y705573D01*
X1120232Y702310D01*
X1120662Y699047D01*
X1121921Y696006D01*
X1123925Y693395D01*
X1126536Y691391D01*
X1129263Y690262D01*
X1129263Y690260D01*
Y688960D01*
X1129263Y688958D01*
X1126536Y687829D01*
X1123925Y685825D01*
X1121921Y683214D01*
X1120662Y680173D01*
X1120232Y676910D01*
X1120662Y673647D01*
X1121921Y670606D01*
X1123925Y667995D01*
X1126536Y665991D01*
X1129263Y664862D01*
X1129263Y664860D01*
Y663560D01*
X1129263Y663558D01*
X1126536Y662429D01*
X1123925Y660425D01*
X1121921Y657814D01*
X1120662Y654773D01*
X1120232Y651510D01*
X1120662Y648247D01*
X1121921Y645206D01*
X1123925Y642595D01*
X1126536Y640591D01*
X1129263Y639462D01*
X1129263Y639460D01*
Y638160D01*
X1129263Y638158D01*
X1126536Y637029D01*
X1123925Y635025D01*
X1121921Y632414D01*
X1120662Y629373D01*
X1120232Y626110D01*
X1120662Y622847D01*
X1121921Y619806D01*
X1123925Y617195D01*
X1126536Y615191D01*
X1129577Y613932D01*
X1132840Y613502D01*
X1136103Y613932D01*
X1139144Y615191D01*
X1141755Y617195D01*
X1142404Y618041D01*
X1153610D01*
X1154096Y616868D01*
X1146008Y608779D01*
X858052D01*
X853889Y612942D01*
Y617806D01*
X854022Y617908D01*
X855865Y620310D01*
X857024Y623108D01*
X857419Y626110D01*
X857024Y629112D01*
X855865Y631910D01*
X854022Y634312D01*
X851620Y636155D01*
X848822Y637314D01*
X845820Y637709D01*
X842818Y637314D01*
X840020Y636155D01*
X837618Y634312D01*
X835775Y631910D01*
X834616Y629112D01*
X834221Y626110D01*
X834616Y623108D01*
X835775Y620310D01*
X837618Y617908D01*
X837751Y617806D01*
Y609600D01*
X838026Y607512D01*
X838832Y605565D01*
X840114Y603894D01*
X849004Y595004D01*
X850676Y593722D01*
X852622Y592916D01*
X854710Y592641D01*
X1149350D01*
X1151438Y592916D01*
X1153384Y593722D01*
X1155056Y595004D01*
X1159158Y599106D01*
X1160331Y598620D01*
Y551180D01*
X1160606Y549092D01*
X1161412Y547146D01*
X1162694Y545474D01*
X1214764Y493404D01*
X1216435Y492122D01*
X1218382Y491316D01*
X1220470Y491041D01*
X1358900D01*
X1360988Y491316D01*
X1362935Y492122D01*
X1364606Y493404D01*
X1374766Y503564D01*
X1376048Y505235D01*
X1376854Y507182D01*
X1377129Y509270D01*
Y635000D01*
X1376854Y637088D01*
X1376048Y639035D01*
X1374766Y640706D01*
X1358256Y657216D01*
X1356584Y658498D01*
X1354638Y659304D01*
X1352550Y659579D01*
X1317792D01*
X1306009Y671362D01*
Y700238D01*
X1311442Y705671D01*
X1346200D01*
X1348288Y705946D01*
X1350235Y706752D01*
X1351906Y708034D01*
X1367146Y723274D01*
X1368428Y724946D01*
X1369234Y726892D01*
X1369509Y728980D01*
Y767080D01*
X1369234Y769168D01*
X1368428Y771115D01*
X1367146Y772786D01*
X1358256Y781676D01*
X1356584Y782958D01*
X1354638Y783764D01*
X1352550Y784039D01*
X1197142D01*
X1179682Y801499D01*
X1179999Y803910D01*
X1179604Y806912D01*
X1178445Y809710D01*
X1176602Y812112D01*
X1174200Y813955D01*
X1171402Y815114D01*
X1168400Y815509D01*
X1165398Y815114D01*
X1162600Y813955D01*
X1160198Y812112D01*
X1158355Y809710D01*
X1157196Y806912D01*
X1156801Y803910D01*
X1157196Y800908D01*
X1158355Y798110D01*
X1160198Y795708D01*
X1162600Y793865D01*
X1165398Y792706D01*
X1165691Y792667D01*
X1188094Y770264D01*
X1189765Y768982D01*
X1191712Y768176D01*
X1193800Y767901D01*
X1328974D01*
X1329036Y767749D01*
X1329189Y766631D01*
X1326658Y765278D01*
X1324221Y763279D01*
X1322499Y761179D01*
X1176704D01*
X1176602Y761312D01*
X1174200Y763155D01*
X1171402Y764314D01*
X1168400Y764709D01*
X1165398Y764314D01*
X1162600Y763155D01*
X1160198Y761312D01*
X1160096Y761179D01*
X1142404D01*
X1141755Y762025D01*
X1139144Y764029D01*
X1136417Y765158D01*
X1136417Y765160D01*
Y766460D01*
X1136417Y766462D01*
X1139144Y767591D01*
X1141755Y769595D01*
X1143759Y772206D01*
X1145018Y775247D01*
X1145448Y778510D01*
X1145018Y781773D01*
X1143759Y784814D01*
X1141755Y787425D01*
X1139144Y789429D01*
X1136417Y790558D01*
X1136417Y790560D01*
Y791860D01*
X1136417Y791862D01*
X1139144Y792991D01*
X1141755Y794995D01*
X1143759Y797606D01*
X1145018Y800647D01*
X1145448Y803910D01*
X1145018Y807173D01*
X1143759Y810214D01*
X1141755Y812825D01*
X1139144Y814829D01*
X1136417Y815958D01*
X1136417Y815960D01*
Y817260D01*
X1136417Y817262D01*
X1139144Y818391D01*
X1141755Y820395D01*
X1143759Y823006D01*
X1145018Y826047D01*
X1145448Y829310D01*
X1145018Y832573D01*
X1143759Y835614D01*
X1141755Y838225D01*
X1139144Y840229D01*
X1136417Y841358D01*
X1136417Y841360D01*
Y842660D01*
X1136417Y842662D01*
X1139144Y843791D01*
X1141755Y845795D01*
X1143759Y848406D01*
X1145018Y851447D01*
X1145448Y854710D01*
X1145018Y857973D01*
X1143759Y861014D01*
X1141755Y863625D01*
X1139144Y865629D01*
X1136417Y866758D01*
X1136417Y866760D01*
Y868060D01*
X1136417Y868062D01*
X1139144Y869191D01*
X1141755Y871195D01*
X1143759Y873806D01*
X1145018Y876847D01*
X1145448Y880110D01*
X1145018Y883373D01*
X1143759Y886414D01*
X1141755Y889025D01*
X1139144Y891029D01*
X1136417Y892158D01*
X1136417Y892160D01*
Y893460D01*
X1136417Y893462D01*
X1139144Y894591D01*
X1141755Y896595D01*
X1142404Y897441D01*
X1160096D01*
X1160198Y897308D01*
X1162600Y895465D01*
X1165398Y894306D01*
X1168400Y893911D01*
X1171402Y894306D01*
X1174200Y895465D01*
X1176602Y897308D01*
X1176704Y897441D01*
X1214588D01*
X1240024Y872004D01*
X1241695Y870722D01*
X1243642Y869916D01*
X1245730Y869641D01*
X1321761D01*
X1322222Y868778D01*
X1324221Y866341D01*
X1326658Y864342D01*
X1329437Y862856D01*
X1332453Y861942D01*
X1335590Y861633D01*
X1338727Y861942D01*
X1341743Y862856D01*
X1344522Y864342D01*
X1346958Y866341D01*
X1348958Y868778D01*
X1350444Y871557D01*
X1351358Y874574D01*
X1351667Y877710D01*
X1351358Y880846D01*
X1350444Y883863D01*
X1348958Y886642D01*
X1346958Y889079D01*
X1344522Y891078D01*
X1341743Y892564D01*
X1338727Y893478D01*
X1335590Y893787D01*
X1332453Y893478D01*
X1329437Y892564D01*
X1326658Y891078D01*
X1324221Y889079D01*
X1322222Y886642D01*
X1321761Y885779D01*
X1249072D01*
X1223636Y911216D01*
X1221964Y912498D01*
X1220018Y913304D01*
X1217930Y913579D01*
X1176704D01*
X1176602Y913712D01*
X1174200Y915555D01*
X1171402Y916714D01*
X1168400Y917109D01*
X1165398Y916714D01*
X1162600Y915555D01*
X1160198Y913712D01*
X1160096Y913579D01*
X1142404D01*
X1141755Y914425D01*
X1139144Y916429D01*
X1136417Y917558D01*
X1136417Y917560D01*
Y918860D01*
X1136417Y918862D01*
X1139144Y919991D01*
X1141755Y921995D01*
X1142404Y922841D01*
X1217930D01*
X1220018Y923116D01*
X1221964Y923922D01*
X1223636Y925204D01*
X1274436Y976004D01*
X1275718Y977675D01*
X1276524Y979622D01*
X1276799Y981710D01*
Y1029168D01*
X1298742Y1051111D01*
X1321761D01*
X1322222Y1050248D01*
X1324221Y1047812D01*
X1326658Y1045812D01*
X1329437Y1044326D01*
X1332453Y1043411D01*
X1335590Y1043103D01*
X1338727Y1043411D01*
X1341743Y1044326D01*
X1344522Y1045812D01*
X1346958Y1047812D01*
X1348958Y1050248D01*
X1350444Y1053027D01*
X1351358Y1056043D01*
X1351667Y1059180D01*
X1351358Y1062317D01*
X1350444Y1065333D01*
X1348958Y1068112D01*
X1346958Y1070548D01*
X1344522Y1072548D01*
X1342865Y1073434D01*
X1342361Y1075101D01*
X1342436Y1075241D01*
X1347938D01*
X1359721Y1063458D01*
Y1018072D01*
X1358098Y1016449D01*
X1349419D01*
X1348958Y1017312D01*
X1346958Y1019749D01*
X1344522Y1021748D01*
X1341743Y1023234D01*
X1338727Y1024148D01*
X1335590Y1024457D01*
X1332453Y1024148D01*
X1329437Y1023234D01*
X1326658Y1021748D01*
X1324221Y1019749D01*
X1322222Y1017312D01*
X1320736Y1014533D01*
X1319821Y1011516D01*
X1319513Y1008380D01*
X1319821Y1005244D01*
X1320736Y1002227D01*
X1322222Y999448D01*
X1324221Y997011D01*
X1326658Y995012D01*
X1329437Y993526D01*
X1332453Y992611D01*
X1335590Y992303D01*
X1338727Y992611D01*
X1341743Y993526D01*
X1344522Y995012D01*
X1346958Y997011D01*
X1348958Y999448D01*
X1349419Y1000311D01*
X1361440D01*
X1363528Y1000586D01*
X1365475Y1001392D01*
X1367146Y1002674D01*
X1373496Y1009024D01*
X1374778Y1010695D01*
X1375584Y1012642D01*
X1375859Y1014730D01*
Y1066800D01*
X1375584Y1068888D01*
X1374778Y1070835D01*
X1373496Y1072506D01*
X1356986Y1089016D01*
X1355314Y1090298D01*
X1353368Y1091104D01*
X1351280Y1091379D01*
X1142404D01*
X1141755Y1092225D01*
X1139144Y1094229D01*
X1136103Y1095488D01*
X1132840Y1095918D01*
D02*
G37*
G36*
X878840D02*
X875577Y1095488D01*
X872536Y1094229D01*
X869925Y1092225D01*
X867921Y1089614D01*
X866662Y1086573D01*
X866232Y1083310D01*
X866662Y1080047D01*
X867921Y1077006D01*
X869925Y1074395D01*
X872536Y1072391D01*
X875263Y1071262D01*
X875263Y1071260D01*
Y1069960D01*
X875263Y1069958D01*
X872536Y1068829D01*
X869925Y1066825D01*
X867921Y1064214D01*
X866662Y1061173D01*
X866232Y1057910D01*
X866662Y1054647D01*
X867921Y1051606D01*
X869925Y1048995D01*
X872536Y1046991D01*
X875263Y1045862D01*
X875263Y1045860D01*
Y1044560D01*
X875263Y1044558D01*
X872536Y1043429D01*
X869925Y1041425D01*
X867921Y1038814D01*
X866662Y1035773D01*
X866232Y1032510D01*
X866662Y1029247D01*
X867921Y1026206D01*
X869925Y1023595D01*
X872536Y1021591D01*
X875263Y1020462D01*
X875263Y1020460D01*
Y1019160D01*
X875263Y1019158D01*
X872536Y1018029D01*
X869925Y1016025D01*
X867921Y1013414D01*
X866662Y1010373D01*
X866232Y1007110D01*
X866662Y1003847D01*
X867921Y1000806D01*
X869925Y998195D01*
X872536Y996191D01*
X875263Y995062D01*
X875263Y995060D01*
Y993760D01*
X875263Y993758D01*
X872536Y992629D01*
X869925Y990625D01*
X867921Y988014D01*
X866662Y984973D01*
X866232Y981710D01*
X866662Y978447D01*
X867921Y975406D01*
X869925Y972795D01*
X872536Y970791D01*
X875263Y969662D01*
X875263Y969660D01*
Y968360D01*
X875263Y968358D01*
X872536Y967229D01*
X869925Y965225D01*
X867921Y962614D01*
X866662Y959573D01*
X866232Y956310D01*
X866662Y953047D01*
X867921Y950006D01*
X869925Y947395D01*
X872536Y945391D01*
X875263Y944262D01*
X875263Y944260D01*
Y942960D01*
X875263Y942958D01*
X872536Y941829D01*
X869925Y939825D01*
X867921Y937214D01*
X866662Y934173D01*
X866232Y930910D01*
X866662Y927647D01*
X867921Y924606D01*
X869925Y921995D01*
X872536Y919991D01*
X875263Y918862D01*
X875263Y918860D01*
Y917560D01*
X875263Y917558D01*
X872536Y916429D01*
X869925Y914425D01*
X867921Y911814D01*
X866662Y908773D01*
X866232Y905510D01*
X866662Y902247D01*
X867921Y899206D01*
X869925Y896595D01*
X872536Y894591D01*
X875263Y893462D01*
X875263Y893460D01*
Y892160D01*
X875263Y892158D01*
X872536Y891029D01*
X869925Y889025D01*
X867921Y886414D01*
X866662Y883373D01*
X866232Y880110D01*
X866662Y876847D01*
X867921Y873806D01*
X869925Y871195D01*
X872536Y869191D01*
X875263Y868062D01*
X875263Y868060D01*
Y866760D01*
X875263Y866758D01*
X872536Y865629D01*
X869925Y863625D01*
X867921Y861014D01*
X866662Y857973D01*
X866232Y854710D01*
X866662Y851447D01*
X867921Y848406D01*
X869925Y845795D01*
X872536Y843791D01*
X875263Y842662D01*
X875263Y842660D01*
Y841360D01*
X875263Y841358D01*
X872536Y840229D01*
X869925Y838225D01*
X867921Y835614D01*
X866662Y832573D01*
X866232Y829310D01*
X866662Y826047D01*
X867921Y823006D01*
X869925Y820395D01*
X872536Y818391D01*
X875263Y817262D01*
X875263Y817260D01*
Y815960D01*
X875263Y815958D01*
X872536Y814829D01*
X869925Y812825D01*
X867921Y810214D01*
X866662Y807173D01*
X866232Y803910D01*
X866662Y800647D01*
X867921Y797606D01*
X869925Y794995D01*
X872536Y792991D01*
X875577Y791732D01*
X878840Y791302D01*
X882103Y791732D01*
X885144Y792991D01*
X887755Y794995D01*
X889759Y797606D01*
X891018Y800647D01*
X891448Y803910D01*
X891018Y807173D01*
X889759Y810214D01*
X887755Y812825D01*
X885144Y814829D01*
X882417Y815958D01*
X882417Y815960D01*
Y817260D01*
X882417Y817262D01*
X885144Y818391D01*
X887755Y820395D01*
X889759Y823006D01*
X891018Y826047D01*
X891448Y829310D01*
X891018Y832573D01*
X889759Y835614D01*
X887755Y838225D01*
X885144Y840229D01*
X882417Y841358D01*
X882417Y841360D01*
Y842660D01*
X882417Y842662D01*
X885144Y843791D01*
X887755Y845795D01*
X889759Y848406D01*
X891018Y851447D01*
X891448Y854710D01*
X891018Y857973D01*
X889759Y861014D01*
X887755Y863625D01*
X885144Y865629D01*
X882417Y866758D01*
X882417Y866760D01*
Y868060D01*
X882417Y868062D01*
X885144Y869191D01*
X887755Y871195D01*
X889759Y873806D01*
X891018Y876847D01*
X891448Y880110D01*
X891018Y883373D01*
X889759Y886414D01*
X887755Y889025D01*
X885144Y891029D01*
X882417Y892158D01*
X882417Y892160D01*
Y893460D01*
X882417Y893462D01*
X885144Y894591D01*
X887755Y896595D01*
X889759Y899206D01*
X891018Y902247D01*
X891448Y905510D01*
X891018Y908773D01*
X889759Y911814D01*
X887755Y914425D01*
X885144Y916429D01*
X882417Y917558D01*
X882417Y917560D01*
Y918860D01*
X882417Y918862D01*
X885144Y919991D01*
X887755Y921995D01*
X889759Y924606D01*
X891018Y927647D01*
X891448Y930910D01*
X891018Y934173D01*
X889759Y937214D01*
X887755Y939825D01*
X885144Y941829D01*
X882417Y942958D01*
X882417Y942960D01*
Y944260D01*
X882417Y944262D01*
X885144Y945391D01*
X887755Y947395D01*
X889759Y950006D01*
X891018Y953047D01*
X891448Y956310D01*
X891018Y959573D01*
X889759Y962614D01*
X887755Y965225D01*
X885144Y967229D01*
X882417Y968358D01*
X882417Y968360D01*
Y969660D01*
X882417Y969662D01*
X885144Y970791D01*
X887755Y972795D01*
X889759Y975406D01*
X891018Y978447D01*
X891448Y981710D01*
X891018Y984973D01*
X889759Y988014D01*
X887755Y990625D01*
X885144Y992629D01*
X882417Y993758D01*
X882417Y993760D01*
Y995060D01*
X882417Y995062D01*
X885144Y996191D01*
X887755Y998195D01*
X889759Y1000806D01*
X891018Y1003847D01*
X891448Y1007110D01*
X891018Y1010373D01*
X889759Y1013414D01*
X887755Y1016025D01*
X885144Y1018029D01*
X882417Y1019158D01*
X882417Y1019160D01*
Y1020460D01*
X882417Y1020462D01*
X885144Y1021591D01*
X887755Y1023595D01*
X889759Y1026206D01*
X891018Y1029247D01*
X891448Y1032510D01*
X891018Y1035773D01*
X889759Y1038814D01*
X887755Y1041425D01*
X885144Y1043429D01*
X882417Y1044558D01*
X882417Y1044560D01*
Y1045860D01*
X882417Y1045862D01*
X885144Y1046991D01*
X887755Y1048995D01*
X889759Y1051606D01*
X891018Y1054647D01*
X891448Y1057910D01*
X891018Y1061173D01*
X889759Y1064214D01*
X887755Y1066825D01*
X885144Y1068829D01*
X882417Y1069958D01*
X882417Y1069960D01*
Y1071260D01*
X882417Y1071262D01*
X885144Y1072391D01*
X887755Y1074395D01*
X889759Y1077006D01*
X891018Y1080047D01*
X891448Y1083310D01*
X891018Y1086573D01*
X889759Y1089614D01*
X887755Y1092225D01*
X885144Y1094229D01*
X882103Y1095488D01*
X878840Y1095918D01*
D02*
G37*
G36*
X678840Y767987D02*
X675703Y767679D01*
X672687Y766764D01*
X669908Y765278D01*
X667471Y763279D01*
X665472Y760842D01*
X663986Y758063D01*
X663072Y755046D01*
X662763Y751910D01*
X663072Y748773D01*
X663986Y745757D01*
X665472Y742978D01*
X667471Y740542D01*
X669908Y738542D01*
X672687Y737056D01*
X675703Y736142D01*
X678840Y735833D01*
X681976Y736142D01*
X684993Y737056D01*
X687772Y738542D01*
X690208Y740542D01*
X692208Y742978D01*
X692669Y743841D01*
X723098D01*
X744934Y722004D01*
X746606Y720722D01*
X748552Y719916D01*
X750640Y719641D01*
X837516D01*
X837618Y719508D01*
X840020Y717665D01*
X842818Y716506D01*
X845820Y716111D01*
X848822Y716506D01*
X851620Y717665D01*
X854022Y719508D01*
X854124Y719641D01*
X869276D01*
X869925Y718795D01*
X872536Y716791D01*
X875263Y715662D01*
X875263Y715660D01*
Y714360D01*
X875263Y714358D01*
X872536Y713229D01*
X869925Y711225D01*
X869276Y710379D01*
X828040D01*
X825952Y710104D01*
X824006Y709298D01*
X822334Y708016D01*
X748498Y634179D01*
X692669D01*
X692208Y635042D01*
X690208Y637478D01*
X687772Y639478D01*
X684993Y640964D01*
X681976Y641879D01*
X678840Y642187D01*
X675703Y641879D01*
X672687Y640964D01*
X669908Y639478D01*
X667471Y637478D01*
X665472Y635042D01*
X663986Y632263D01*
X663072Y629246D01*
X662763Y626110D01*
X663072Y622974D01*
X663986Y619957D01*
X665472Y617178D01*
X667471Y614742D01*
X669908Y612742D01*
X672687Y611256D01*
X675703Y610341D01*
X678840Y610033D01*
X681976Y610341D01*
X684993Y611256D01*
X687772Y612742D01*
X690208Y614742D01*
X692208Y617178D01*
X692669Y618041D01*
X751840D01*
X753928Y618316D01*
X755874Y619122D01*
X757546Y620404D01*
X831382Y694241D01*
X869276D01*
X869925Y693395D01*
X872536Y691391D01*
X875263Y690262D01*
X875263Y690260D01*
Y688960D01*
X875263Y688958D01*
X872536Y687829D01*
X869925Y685825D01*
X869276Y684979D01*
X836930D01*
X834842Y684704D01*
X832896Y683898D01*
X831224Y682616D01*
X731988Y583379D01*
X692669D01*
X692208Y584242D01*
X690208Y586679D01*
X687772Y588678D01*
X684993Y590164D01*
X681976Y591078D01*
X678840Y591387D01*
X675703Y591078D01*
X672687Y590164D01*
X669908Y588678D01*
X667471Y586679D01*
X665472Y584242D01*
X663986Y581463D01*
X663072Y578447D01*
X662763Y575310D01*
X663072Y572174D01*
X663986Y569157D01*
X665472Y566378D01*
X667471Y563941D01*
X669908Y561942D01*
X672687Y560456D01*
X675703Y559542D01*
X678840Y559233D01*
X681976Y559542D01*
X684993Y560456D01*
X687772Y561942D01*
X690208Y563941D01*
X692208Y566378D01*
X692669Y567241D01*
X735330D01*
X737418Y567516D01*
X739364Y568322D01*
X741036Y569604D01*
X802563Y631131D01*
X803022Y630978D01*
X803701Y630474D01*
X803461Y628650D01*
Y595162D01*
X740878Y532579D01*
X694840D01*
Y540510D01*
X662840D01*
Y508510D01*
X694840D01*
Y516441D01*
X744220D01*
X746308Y516716D01*
X748254Y517522D01*
X749926Y518804D01*
X817236Y586114D01*
X818518Y587785D01*
X819324Y589732D01*
X819599Y591820D01*
Y625308D01*
X837732Y643441D01*
X869276D01*
X869925Y642595D01*
X872536Y640591D01*
X875577Y639332D01*
X878840Y638902D01*
X882103Y639332D01*
X885144Y640591D01*
X887755Y642595D01*
X889759Y645206D01*
X891018Y648247D01*
X891448Y651510D01*
X891018Y654773D01*
X889759Y657814D01*
X887755Y660425D01*
X885144Y662429D01*
X882417Y663558D01*
X882417Y663560D01*
Y664860D01*
X882417Y664862D01*
X885144Y665991D01*
X887755Y667995D01*
X889759Y670606D01*
X891018Y673647D01*
X891448Y676910D01*
X891018Y680173D01*
X889759Y683214D01*
X887755Y685825D01*
X885144Y687829D01*
X882417Y688958D01*
X882417Y688960D01*
Y690260D01*
X882417Y690262D01*
X885144Y691391D01*
X887755Y693395D01*
X889759Y696006D01*
X891018Y699047D01*
X891448Y702310D01*
X891018Y705573D01*
X889759Y708614D01*
X887755Y711225D01*
X885144Y713229D01*
X882417Y714358D01*
X882417Y714360D01*
Y715660D01*
X882417Y715662D01*
X885144Y716791D01*
X887755Y718795D01*
X889759Y721406D01*
X891018Y724447D01*
X891448Y727710D01*
X891018Y730973D01*
X889759Y734014D01*
X887755Y736625D01*
X885144Y738629D01*
X882417Y739758D01*
X882417Y739760D01*
Y741060D01*
X882417Y741062D01*
X885144Y742191D01*
X887755Y744195D01*
X889759Y746806D01*
X891018Y749847D01*
X891448Y753110D01*
X891018Y756373D01*
X889759Y759414D01*
X887755Y762025D01*
X885144Y764029D01*
X882103Y765288D01*
X878840Y765718D01*
X875577Y765288D01*
X872536Y764029D01*
X869925Y762025D01*
X867921Y759414D01*
X866662Y756373D01*
X866232Y753110D01*
X866662Y749847D01*
X867921Y746806D01*
X869925Y744195D01*
X872536Y742191D01*
X875263Y741062D01*
X875263Y741060D01*
Y739760D01*
X875263Y739758D01*
X872536Y738629D01*
X869925Y736625D01*
X869276Y735779D01*
X854124D01*
X854022Y735912D01*
X851620Y737755D01*
X848822Y738914D01*
X845820Y739309D01*
X842818Y738914D01*
X840020Y737755D01*
X837618Y735912D01*
X837516Y735779D01*
X753982D01*
X732146Y757616D01*
X730474Y758898D01*
X728528Y759704D01*
X726440Y759979D01*
X692669D01*
X692208Y760842D01*
X690208Y763279D01*
X687772Y765278D01*
X684993Y766764D01*
X681976Y767679D01*
X678840Y767987D01*
D02*
G37*
G36*
X1333500Y472597D02*
X1329971Y472249D01*
X1326578Y471220D01*
X1323451Y469549D01*
X1320710Y467299D01*
X1318461Y464559D01*
X1316790Y461432D01*
X1315760Y458039D01*
X1315413Y454510D01*
X1315760Y450981D01*
X1316790Y447588D01*
X1318461Y444461D01*
X1320710Y441721D01*
X1323451Y439471D01*
X1326578Y437800D01*
X1329971Y436770D01*
X1333500Y436423D01*
X1337029Y436770D01*
X1340422Y437800D01*
X1343549Y439471D01*
X1346290Y441721D01*
X1348539Y444461D01*
X1350210Y447588D01*
X1351239Y450981D01*
X1351587Y454510D01*
X1351239Y458039D01*
X1350210Y461432D01*
X1348539Y464559D01*
X1346290Y467299D01*
X1343549Y469549D01*
X1340422Y471220D01*
X1337029Y472249D01*
X1333500Y472597D01*
D02*
G37*
G36*
X678840D02*
X675311Y472249D01*
X671918Y471220D01*
X668791Y469549D01*
X666050Y467299D01*
X663801Y464559D01*
X662130Y461432D01*
X661100Y458039D01*
X660753Y454510D01*
X661100Y450981D01*
X662130Y447588D01*
X663801Y444461D01*
X666050Y441721D01*
X668791Y439471D01*
X671918Y437800D01*
X675311Y436770D01*
X678840Y436423D01*
X682369Y436770D01*
X685762Y437800D01*
X688889Y439471D01*
X691629Y441721D01*
X693879Y444461D01*
X695550Y447588D01*
X696580Y450981D01*
X696927Y454510D01*
X696580Y458039D01*
X695550Y461432D01*
X693879Y464559D01*
X691629Y467299D01*
X688889Y469549D01*
X685762Y471220D01*
X682369Y472249D01*
X678840Y472597D01*
D02*
G37*
%LPD*%
G36*
X1178760Y1020010D02*
X1186421D01*
X1186673Y1018740D01*
X1184956Y1018029D01*
X1182345Y1016025D01*
X1181696Y1015179D01*
X1142404D01*
X1141755Y1016025D01*
X1139144Y1018029D01*
X1136417Y1019158D01*
X1136417Y1019160D01*
Y1020460D01*
X1136417Y1020462D01*
X1139144Y1021591D01*
X1141755Y1023595D01*
X1142404Y1024441D01*
X1178760D01*
Y1020010D01*
D02*
G37*
G36*
X1353371Y763738D02*
Y732322D01*
X1342858Y721809D01*
X1308100D01*
X1306012Y721534D01*
X1304066Y720728D01*
X1302394Y719446D01*
X1292234Y709286D01*
X1290952Y707615D01*
X1290146Y705668D01*
X1289871Y703580D01*
Y668020D01*
X1290146Y665932D01*
X1290952Y663986D01*
X1292234Y662314D01*
X1308744Y645804D01*
X1310415Y644522D01*
X1312362Y643716D01*
X1314450Y643441D01*
X1333271D01*
X1333333Y642171D01*
X1330363Y641879D01*
X1327347Y640964D01*
X1324568Y639478D01*
X1322132Y637478D01*
X1320132Y635042D01*
X1319671Y634179D01*
X1303822D01*
X1286959Y651042D01*
Y671830D01*
X1286684Y673918D01*
X1285878Y675864D01*
X1284596Y677536D01*
X1228716Y733416D01*
X1227045Y734698D01*
X1225098Y735504D01*
X1223010Y735779D01*
X1142404D01*
X1141755Y736625D01*
X1139144Y738629D01*
X1136417Y739758D01*
X1136417Y739760D01*
Y741060D01*
X1136417Y741062D01*
X1139144Y742191D01*
X1141755Y744195D01*
X1142404Y745041D01*
X1160096D01*
X1160198Y744908D01*
X1162600Y743065D01*
X1165398Y741906D01*
X1168400Y741511D01*
X1171402Y741906D01*
X1174200Y743065D01*
X1176602Y744908D01*
X1176704Y745041D01*
X1321119D01*
X1322222Y742978D01*
X1324221Y740542D01*
X1326658Y738542D01*
X1329437Y737056D01*
X1332453Y736142D01*
X1335590Y735833D01*
X1338727Y736142D01*
X1341743Y737056D01*
X1344522Y738542D01*
X1346958Y740542D01*
X1348958Y742978D01*
X1350444Y745757D01*
X1351358Y748773D01*
X1351667Y751910D01*
X1351358Y755046D01*
X1350444Y758063D01*
X1348958Y760842D01*
X1346958Y763279D01*
X1344522Y765278D01*
X1341991Y766631D01*
X1342144Y767749D01*
X1342206Y767901D01*
X1349208D01*
X1353371Y763738D01*
D02*
G37*
G36*
X1270821Y668488D02*
Y647700D01*
X1271096Y645612D01*
X1271902Y643665D01*
X1273184Y641994D01*
X1294774Y620404D01*
X1296445Y619122D01*
X1298392Y618316D01*
X1300480Y618041D01*
X1319671D01*
X1320132Y617178D01*
X1322132Y614742D01*
X1324568Y612742D01*
X1327347Y611256D01*
X1330363Y610341D01*
X1333500Y610033D01*
X1336637Y610341D01*
X1339653Y611256D01*
X1342432Y612742D01*
X1344868Y614742D01*
X1346868Y617178D01*
X1348354Y619957D01*
X1349268Y622974D01*
X1349577Y626110D01*
X1349268Y629246D01*
X1348354Y632263D01*
X1346868Y635042D01*
X1344868Y637478D01*
X1342432Y639478D01*
X1339653Y640964D01*
X1336637Y641879D01*
X1333667Y642171D01*
X1333729Y643441D01*
X1349208D01*
X1360991Y631658D01*
Y512612D01*
X1355558Y507179D01*
X1333729D01*
X1333667Y508449D01*
X1336637Y508741D01*
X1339653Y509656D01*
X1342432Y511142D01*
X1344868Y513142D01*
X1346868Y515578D01*
X1348354Y518357D01*
X1349268Y521373D01*
X1349577Y524510D01*
X1349268Y527646D01*
X1348354Y530663D01*
X1346868Y533442D01*
X1344868Y535878D01*
X1342432Y537878D01*
X1339653Y539364D01*
X1336637Y540279D01*
X1333500Y540587D01*
X1330363Y540279D01*
X1327347Y539364D01*
X1324568Y537878D01*
X1322132Y535878D01*
X1320132Y533442D01*
X1319671Y532579D01*
X1287312D01*
X1241239Y578652D01*
Y651510D01*
X1240964Y653598D01*
X1240158Y655545D01*
X1238876Y657216D01*
X1213476Y682616D01*
X1211805Y683898D01*
X1209858Y684704D01*
X1207770Y684979D01*
X1142404D01*
X1141755Y685825D01*
X1139144Y687829D01*
X1136417Y688958D01*
X1136417Y688960D01*
Y690260D01*
X1136417Y690262D01*
X1139144Y691391D01*
X1141755Y693395D01*
X1142404Y694241D01*
X1212048D01*
X1244151Y662138D01*
Y594360D01*
X1244426Y592272D01*
X1245232Y590326D01*
X1246514Y588654D01*
X1266834Y568334D01*
X1268505Y567052D01*
X1270452Y566246D01*
X1272540Y565971D01*
X1320466D01*
X1322132Y563941D01*
X1324568Y561942D01*
X1327347Y560456D01*
X1330363Y559542D01*
X1333500Y559233D01*
X1336637Y559542D01*
X1339653Y560456D01*
X1342432Y561942D01*
X1344868Y563941D01*
X1346868Y566378D01*
X1348354Y569157D01*
X1349268Y572174D01*
X1349577Y575310D01*
X1349268Y578447D01*
X1348354Y581463D01*
X1346868Y584242D01*
X1344868Y586679D01*
X1342432Y588678D01*
X1339653Y590164D01*
X1336637Y591078D01*
X1333500Y591387D01*
X1330363Y591078D01*
X1327347Y590164D01*
X1324568Y588678D01*
X1322132Y586679D01*
X1320132Y584242D01*
X1318992Y582109D01*
X1275882D01*
X1260289Y597702D01*
Y665480D01*
X1260014Y667568D01*
X1259208Y669514D01*
X1257926Y671186D01*
X1221096Y708016D01*
X1219425Y709298D01*
X1217478Y710104D01*
X1215390Y710379D01*
X1142404D01*
X1141755Y711225D01*
X1139144Y713229D01*
X1136417Y714358D01*
X1136417Y714360D01*
Y715660D01*
X1136417Y715662D01*
X1139144Y716791D01*
X1141755Y718795D01*
X1142404Y719641D01*
X1219668D01*
X1270821Y668488D01*
D02*
G37*
G36*
X1225101Y648168D02*
Y575310D01*
X1225376Y573222D01*
X1226182Y571275D01*
X1227464Y569604D01*
X1278264Y518804D01*
X1279936Y517522D01*
X1281882Y516716D01*
X1283970Y516441D01*
X1319671D01*
X1320132Y515578D01*
X1322132Y513142D01*
X1324568Y511142D01*
X1327347Y509656D01*
X1330363Y508741D01*
X1333333Y508449D01*
X1333271Y507179D01*
X1223812D01*
X1176469Y554522D01*
Y619760D01*
Y626110D01*
Y643206D01*
X1176602Y643308D01*
X1178445Y645710D01*
X1179604Y648508D01*
X1179999Y651510D01*
X1179604Y654512D01*
X1178445Y657310D01*
X1176602Y659712D01*
X1174200Y661555D01*
X1171402Y662714D01*
X1168400Y663109D01*
X1165398Y662714D01*
X1162600Y661555D01*
X1160198Y659712D01*
X1158355Y657310D01*
X1157196Y654512D01*
X1156801Y651510D01*
X1157196Y648508D01*
X1158355Y645710D01*
X1160198Y643308D01*
X1160331Y643206D01*
Y634179D01*
X1142404D01*
X1141755Y635025D01*
X1139144Y637029D01*
X1136417Y638158D01*
X1136417Y638160D01*
Y639460D01*
X1136417Y639462D01*
X1139144Y640591D01*
X1141755Y642595D01*
X1143759Y645206D01*
X1145018Y648247D01*
X1145448Y651510D01*
X1145018Y654773D01*
X1143759Y657814D01*
X1141755Y660425D01*
X1139144Y662429D01*
X1136417Y663558D01*
X1136417Y663560D01*
Y664860D01*
X1136417Y664862D01*
X1139144Y665991D01*
X1141755Y667995D01*
X1142404Y668841D01*
X1204428D01*
X1225101Y648168D01*
D02*
G37*
G36*
X869925Y667995D02*
X872536Y665991D01*
X875263Y664862D01*
X875263Y664860D01*
Y663560D01*
X875263Y663558D01*
X872536Y662429D01*
X869925Y660425D01*
X869276Y659579D01*
X834390D01*
X832566Y659339D01*
X832062Y660018D01*
X831909Y660477D01*
X840272Y668841D01*
X869276D01*
X869925Y667995D01*
D02*
G37*
D10*
X1171091Y798679D02*
Y799324D01*
X1168400Y802016D02*
X1171091Y799324D01*
X1168400Y802016D02*
Y803910D01*
X1171091Y798679D02*
X1193800Y775970D01*
X1168400Y551180D02*
Y619760D01*
Y551180D02*
X1220470Y499110D01*
X1358900D01*
X1369060Y509270D01*
Y635000D01*
X1352550Y651510D02*
X1369060Y635000D01*
X1314450Y651510D02*
X1352550D01*
X1297940Y668020D02*
X1314450Y651510D01*
X1297940Y668020D02*
Y703580D01*
X1308100Y713740D01*
X1346200D01*
X1361440Y728980D01*
Y767080D01*
X1352550Y775970D02*
X1361440Y767080D01*
X1193800Y775970D02*
X1352550D01*
X1132840Y905510D02*
X1168400D01*
X1217930D01*
X1168400D02*
X1217930D01*
X1168400D02*
X1217930D01*
X929148Y778510D02*
X1106948Y956310D01*
X892810Y778510D02*
X929148D01*
X1132840Y626110D02*
X1168400D01*
X1351280Y1083310D02*
X1367790Y1066800D01*
Y1014730D02*
Y1066800D01*
X1361440Y1008380D02*
X1367790Y1014730D01*
X1118870Y1109980D02*
X1335590D01*
X1101090Y1092200D02*
X1118870Y1109980D01*
X1101090Y962168D02*
Y1092200D01*
Y962168D02*
X1106948Y956310D01*
X1132840D01*
X1333500Y676910D02*
X1357630D01*
X1383030Y702310D01*
Y824230D01*
X1335590Y802710D02*
X1361510D01*
X1383030Y824230D01*
Y943610D01*
X1335590Y928510D02*
X1367930D01*
X1383030Y943610D01*
Y1099820D01*
X1372870Y1109980D02*
X1383030Y1099820D01*
X1335590Y1109980D02*
X1372870D01*
X1169670Y981710D02*
X1191260D01*
X1145879Y957919D02*
X1169670Y981710D01*
X1134449Y957919D02*
X1145879D01*
X1132840Y956310D02*
X1134449Y957919D01*
X1132840Y1032510D02*
X1191260D01*
X1132840Y1007110D02*
X1191260D01*
X1335590Y1008380D02*
X1361440D01*
X1132840Y1083310D02*
X1351280D01*
X1268730Y981710D02*
Y1032510D01*
X1217930Y930910D02*
X1268730Y981710D01*
X1132840Y930910D02*
X1217930D01*
X1295400Y1059180D02*
X1335590D01*
X1268730Y1032510D02*
X1295400Y1059180D01*
X1245730Y877710D02*
X1335590D01*
X1217930Y905510D02*
X1245730Y877710D01*
X1168400Y626110D02*
Y651510D01*
Y619760D02*
Y626110D01*
X1149350Y600710D02*
X1168400Y619760D01*
X854710Y600710D02*
X1149350D01*
X845820Y609600D02*
X854710Y600710D01*
X845820Y609600D02*
Y626110D01*
X1334390Y753110D02*
X1335590Y751910D01*
X1168400Y753110D02*
X1334390D01*
X1132840D02*
X1168400D01*
X1300480Y626110D02*
X1333500D01*
X1278890Y647700D02*
X1300480Y626110D01*
X1278890Y647700D02*
Y671830D01*
X1223010Y727710D02*
X1278890Y671830D01*
X1132840Y727710D02*
X1223010D01*
X1332230Y574040D02*
X1333500Y575310D01*
X1272540Y574040D02*
X1332230D01*
X1252220Y594360D02*
X1272540Y574040D01*
X1252220Y594360D02*
Y665480D01*
X1215390Y702310D02*
X1252220Y665480D01*
X1132840Y702310D02*
X1215390D01*
X1283970Y524510D02*
X1333500D01*
X1233170Y575310D02*
X1283970Y524510D01*
X1233170Y575310D02*
Y651510D01*
X1207770Y676910D02*
X1233170Y651510D01*
X1132840Y676910D02*
X1207770D01*
X678840Y751910D02*
X726440D01*
X845820Y727710D02*
X878840D01*
X726440Y751910D02*
X750640Y727710D01*
X845820D01*
X899160Y626110D02*
X908050Y635000D01*
X878840Y626110D02*
X899160D01*
X908050Y635000D02*
Y763270D01*
X892810Y778510D02*
X908050Y763270D01*
X878840Y778510D02*
X892810D01*
X703040D02*
X878840D01*
X678840Y802710D02*
X703040Y778510D01*
X828040Y702310D02*
X878840D01*
X751840Y626110D02*
X828040Y702310D01*
X678840Y626110D02*
X751840D01*
X836930Y676910D02*
X878840D01*
X735330Y575310D02*
X836930Y676910D01*
X678840Y575310D02*
X735330D01*
X834390Y651510D02*
X878840D01*
X811530Y628650D02*
X834390Y651510D01*
X811530Y591820D02*
Y628650D01*
X744220Y524510D02*
X811530Y591820D01*
X678840Y524510D02*
X744220D01*
D11*
X678840Y1179980D02*
D03*
X1335590D02*
D03*
X678840Y454510D02*
D03*
X1333500D02*
D03*
X1191260Y1007110D02*
D03*
Y981710D02*
D03*
X878840Y1083310D02*
D03*
Y1057910D02*
D03*
Y1032510D02*
D03*
Y1007110D02*
D03*
Y981710D02*
D03*
Y956310D02*
D03*
Y930910D02*
D03*
Y905510D02*
D03*
Y880110D02*
D03*
Y854710D02*
D03*
Y829310D02*
D03*
Y803910D02*
D03*
Y778510D02*
D03*
Y753110D02*
D03*
Y727710D02*
D03*
Y702310D02*
D03*
Y676910D02*
D03*
Y651510D02*
D03*
Y626110D02*
D03*
X1132840D02*
D03*
Y651510D02*
D03*
Y676910D02*
D03*
Y702310D02*
D03*
Y727710D02*
D03*
Y753110D02*
D03*
Y778510D02*
D03*
Y803910D02*
D03*
Y829310D02*
D03*
Y854710D02*
D03*
Y880110D02*
D03*
Y905510D02*
D03*
Y930910D02*
D03*
Y956310D02*
D03*
Y981710D02*
D03*
Y1007110D02*
D03*
Y1032510D02*
D03*
Y1057910D02*
D03*
Y1083310D02*
D03*
D12*
X678840Y524510D02*
D03*
X1333500Y676910D02*
D03*
D13*
X678840Y575310D02*
D03*
Y626110D02*
D03*
Y676910D02*
D03*
Y751910D02*
D03*
Y802710D02*
D03*
X1333500Y626110D02*
D03*
Y575310D02*
D03*
Y524510D02*
D03*
X1335590Y802710D02*
D03*
Y751910D02*
D03*
Y928510D02*
D03*
Y877710D02*
D03*
Y1109980D02*
D03*
Y1059180D02*
D03*
Y1008380D02*
D03*
D14*
X1191260Y1032510D02*
D03*
D15*
X1168400Y803910D02*
D03*
Y905510D02*
D03*
Y651510D02*
D03*
Y753110D02*
D03*
X845820Y727710D02*
D03*
Y626110D02*
D03*
M02*
